<svg width="512" height="512" viewBox="0 0 512 512" fill="none" xmlns="http://www.w3.org/2000/svg">
<path fill-rule="evenodd" clip-rule="evenodd" d="M33.0683 186.434C43.4113 168.721 66.854 128.575 123.077 81.6084C131.735 80.0839 139.374 81.6084 144.411 84.1418C151.938 87.9277 150.154 93.1544 150.154 93.1544C154.652 104.24 175.019 117.397 210.643 129C240.295 138.658 277.648 143.399 294.702 142.351C297.32 142.19 298.503 141.012 299.645 139.875C301.005 138.521 302.306 137.225 305.906 137.778C312.203 138.744 312.611 140.689 314.293 148.69C314.379 149.101 314.469 149.529 314.564 149.973C314.679 150.516 314.639 151.719 314.578 153.576C314.475 156.705 314.31 161.69 314.722 168.505C316.825 168.282 318.792 168.394 320.393 168.659L321.773 168.888L323.002 169.556C329.007 172.821 338.129 178.688 346.404 185.925C354.4 192.918 362.924 202.311 365.735 212.812C367.159 218.133 367.115 223.153 365.581 227.691C364.055 232.205 361.26 235.634 358.161 238.138C352.204 242.95 344.626 244.791 339.594 245.209L338.186 245.326L336.818 244.972C336.079 244.78 335.296 244.531 334.475 244.221C344.577 267.885 359.709 295.892 382.336 328.135C382.485 328.347 382.635 328.567 382.79 328.794C386.273 333.886 392.39 342.829 442.03 353.496C499.868 365.924 500.219 369.219 501.955 385.5C502.165 387.466 502.394 389.621 502.748 392.004C505.584 411.12 483.853 419.63 468.946 425.468C466.602 426.386 464.427 427.238 462.543 428.054C454.614 431.49 310.999 432.445 295.977 428.054C262.336 418.222 9.00039 259.381 9 232.235C8.99973 213.376 14.1621 208.6 20.3877 202.841C23.123 200.31 26.0635 197.59 28.8616 193.402C29.9547 191.766 31.3256 189.419 33.0683 186.434ZM319.132 186.453C320.652 189.024 323.536 190.891 326.356 192.716C331.654 196.146 336.726 199.429 332.107 206.963C327.912 209.074 326.706 212.354 325.566 215.457C325.565 215.46 325.563 215.463 325.562 215.466C331.192 223.558 336.952 227.262 339.791 228.508C342.519 228.047 345.628 226.958 347.718 225.269C348.85 224.355 349.516 223.407 349.857 222.398C350.19 221.413 350.42 219.765 349.702 217.085C348.229 211.583 342.965 204.935 335.466 198.377C329.954 193.557 323.94 189.389 319.132 186.453Z" fill="url(#paint0_linear)"/>
<defs>
<linearGradient id="paint0_linear" x1="-2.01764" y1="196.107" x2="529.761" y2="260.35" gradientUnits="userSpaceOnUse">
<stop stop-color="#69C6BB"/>
<stop offset="1" stop-color="#28AFCD"/>
</linearGradient>
</defs>
</svg>
