<svg width="671" height="671" viewBox="0 0 671 671" fill="none" xmlns="http://www.w3.org/2000/svg">
<mask id="mask0" mask-type="alpha" maskUnits="userSpaceOnUse" x="9" y="172" width="338" height="338">
<rect x="9.34741" y="243.823" width="275.565" height="275.565" transform="rotate(-15 9.34741 243.823)" fill="white"/>
</mask>
<g mask="url(#mask0)">
<rect x="9.34741" y="243.823" width="546.38" height="275.565" rx="33.2579" transform="rotate(-15 9.34741 243.823)" fill="#99C685"/>
<rect x="20.9852" y="250.542" width="527.375" height="256.561" rx="23.7556" transform="rotate(-15 20.9852 250.542)" stroke="black" stroke-opacity="0.17" stroke-width="19.0045"/>
<rect x="93.1184" y="427.965" width="90.2714" height="33.2579" rx="14.2534" transform="rotate(-15 93.1184 427.965)" fill="black" fill-opacity="0.17"/>
<rect x="53.7686" y="281.108" width="90.2714" height="33.2579" rx="14.2534" transform="rotate(-15 53.7686 281.108)" fill="black" fill-opacity="0.17"/>
<circle cx="311.184" cy="305.589" r="76.018" transform="rotate(-15 311.184 305.589)" fill="black" fill-opacity="0.24"/>
<path d="M45.0088 376.911L311.184 305.59L346.845 438.677L112.794 501.391C95.0523 506.145 76.8157 495.616 72.0618 477.874L45.0088 376.911Z" fill="white" fill-opacity="0.2"/>
</g>
<mask id="mask1" mask-type="alpha" maskUnits="userSpaceOnUse" x="384" y="163" width="277" height="276">
<rect x="384.686" y="163" width="275.565" height="275.565" fill="white"/>
</mask>
<g mask="url(#mask1)">
<rect x="113.872" y="163" width="546.38" height="275.565" rx="33.2579" fill="#99C685"/>
<rect x="123.374" y="172.502" width="527.375" height="256.561" rx="23.7556" stroke="black" stroke-opacity="0.17" stroke-width="19.0045"/>
<circle cx="384.686" cy="300.783" r="76.018" fill="black" fill-opacity="0.24"/>
<path d="M592.501 282.778V274.226C588.193 273.276 584.519 271.375 581.478 268.525C578.437 265.674 576.189 262.095 574.732 257.787L585.279 253.891C586.609 256.995 588.447 259.466 590.79 261.303C593.134 263.14 595.795 264.059 598.772 264.059C601.876 264.059 604.347 263.267 606.184 261.683C608.021 260.036 608.94 257.756 608.94 254.841C608.94 253.321 608.623 251.991 607.989 250.851C607.356 249.647 606.279 248.57 604.759 247.62C603.302 246.67 601.971 245.941 600.768 245.434C599.628 244.927 597.917 244.231 595.637 243.344C593.293 242.457 591.519 241.76 590.315 241.253C589.112 240.683 587.496 239.828 585.469 238.688C583.505 237.484 582.017 236.28 581.003 235.077C580.053 233.873 579.166 232.289 578.342 230.326C577.582 228.362 577.202 226.176 577.202 223.769C577.202 219.525 578.532 215.851 581.193 212.747C583.917 209.579 587.686 207.52 592.501 206.57V198.968H603.618V206.665C607.356 207.552 610.397 209.199 612.741 211.606C615.148 213.95 616.858 216.864 617.872 220.348L607.609 223.769C605.772 219.208 602.288 216.927 597.157 216.927C594.56 216.927 592.532 217.529 591.075 218.733C589.618 219.937 588.89 221.615 588.89 223.769C588.89 224.719 589.112 225.606 589.555 226.43C589.999 227.253 590.505 227.95 591.075 228.52C591.709 229.027 592.628 229.597 593.831 230.231C595.098 230.864 596.143 231.339 596.967 231.656C597.79 231.973 599.057 232.448 600.768 233.081C602.858 233.905 604.41 234.538 605.424 234.982C606.437 235.425 607.894 236.122 609.795 237.072C611.695 238.022 613.152 239.004 614.166 240.018C615.18 240.968 616.256 242.172 617.397 243.629C618.537 245.022 619.361 246.67 619.867 248.57C620.374 250.407 620.627 252.466 620.627 254.746C620.627 260.131 619.044 264.534 615.876 267.955C612.709 271.375 608.623 273.529 603.618 274.416V282.778H592.501Z" fill="black" fill-opacity="0.33"/>
<rect x="536.722" y="362.547" width="90.2714" height="33.2579" rx="14.2534" fill="black" fill-opacity="0.17"/>
<path d="M384.686 300.782H660.252V405.307C660.252 423.675 645.362 438.565 626.994 438.565H384.686V300.782Z" fill="white" fill-opacity="0.2"/>
</g>
</svg>
