<svg width="512" height="512" viewBox="0 0 512 512" fill="none" xmlns="http://www.w3.org/2000/svg">
<g filter="url(#filter0_i)">
<path d="M479 143.572H487.5C487.5 140.767 486.116 138.142 483.802 136.558L479 143.572ZM32 143.572L27.1984 136.558C24.8839 138.142 23.5 140.767 23.5 143.572H32ZM255.5 502L250.698 509.014C253.593 510.995 257.407 510.995 260.302 509.014L255.5 502ZM71.9805 376.367L76.7821 369.353L71.9805 376.367ZM143.75 425.499L138.948 432.513L138.948 432.513L143.75 425.499ZM367.25 425.499L372.052 432.513L372.052 432.513L367.25 425.499ZM439.02 376.367L434.218 369.353L434.218 369.353L439.02 376.367ZM143.75 67.0702L138.948 60.0563L138.948 60.0563L143.75 67.0702ZM203.686 26.0396L208.487 33.0535L208.487 33.0535L203.686 26.0396ZM307.314 26.0396L302.513 33.0535L302.513 33.0535L307.314 26.0396ZM367.25 67.0702L372.052 60.0563L372.052 60.0563L367.25 67.0702ZM259.115 77.1282L255.45 69.4587L255.45 69.4587L259.115 77.1282ZM247.066 143.572L238.669 142.251L238.669 142.251L247.066 143.572ZM214.535 124.675L218.883 117.371L218.883 117.371L214.535 124.675ZM487.5 300.509V143.572H470.5V300.509H487.5ZM23.5 143.572V300.546H40.5V143.572H23.5ZM247 296.574V502H264V296.574H247ZM260.302 289.56L148.552 213.059L138.948 227.087L250.698 303.588L260.302 289.56ZM148.552 213.059L36.8016 136.558L27.1984 150.585L138.948 227.087L148.552 213.059ZM67.1789 383.381L138.948 432.513L148.552 418.485L76.7821 369.353L67.1789 383.381ZM138.948 432.513L250.698 509.014L260.302 494.986L148.552 418.485L138.948 432.513ZM135.25 220.073V425.499H152.25V220.073H135.25ZM474.198 136.558L362.448 213.059L372.052 227.087L483.802 150.585L474.198 136.558ZM362.448 213.059L250.698 289.56L260.302 303.588L372.052 227.087L362.448 213.059ZM260.302 509.014L372.052 432.513L362.448 418.485L250.698 494.986L260.302 509.014ZM372.052 432.513L443.821 383.381L434.218 369.353L362.448 418.485L372.052 432.513ZM358.75 220.073V425.499H375.75V220.073H358.75ZM36.8016 150.585L148.552 74.0842L138.948 60.0563L27.1984 136.558L36.8016 150.585ZM148.552 74.0842L208.487 33.0535L198.884 19.0257L138.948 60.0563L148.552 74.0842ZM302.513 33.0535L362.448 74.0842L372.052 60.0563L312.116 19.0257L302.513 33.0535ZM362.448 74.0842L474.198 150.585L483.802 136.558L372.052 60.0563L362.448 74.0842ZM148.552 227.087L236.934 166.583L227.33 152.555L138.948 213.059L148.552 227.087ZM236.934 166.583L247.569 159.302L237.966 145.274L227.33 152.555L236.934 166.583ZM247.569 159.302L260.302 150.585L250.698 136.558L237.966 145.274L247.569 159.302ZM260.302 150.585L288.631 131.192L279.028 117.164L250.698 136.558L260.302 150.585ZM288.631 131.192L372.052 74.0842L362.448 60.0563L279.028 117.164L288.631 131.192ZM256.807 151.97C272.331 149.554 283.766 139.522 290.887 128.916L276.772 119.44C271.395 127.449 263.642 133.702 254.193 135.173L256.807 151.97ZM290.887 128.916C297.091 119.674 300.748 108.94 300.748 100.292H283.748C283.748 104.782 281.586 112.271 276.772 119.44L290.887 128.916ZM300.748 100.292C300.748 89.5607 297.501 78.3082 289.327 71.3425C280.47 63.7943 268.349 63.2955 255.45 69.4587L262.779 84.7976C271.568 80.5982 276.013 82.3317 278.301 84.2813C281.272 86.8133 283.748 92.3241 283.748 100.292H300.748ZM255.45 69.4587C248.581 72.7411 244.004 77.6797 241.312 83.7423C238.751 89.5079 238.1 95.8324 238.05 101.747C238 107.623 238.565 114.064 238.962 119.945C239.374 126.046 239.64 131.904 239.207 137.572L256.157 138.867C256.689 131.904 256.343 125.016 255.924 118.801C255.49 112.367 255.006 106.923 255.049 101.891C255.091 96.8961 255.674 93.2877 256.849 90.6414C257.892 88.2922 259.551 86.3399 262.779 84.7976L255.45 69.4587ZM239.207 137.572C239.16 138.182 239.106 138.788 239.042 139.39L255.949 141.167C256.03 140.398 256.099 139.631 256.157 138.867L239.207 137.572ZM239.042 139.39C238.941 140.356 238.817 141.31 238.669 142.251L255.463 144.892C255.659 143.645 255.819 142.403 255.949 141.167L239.042 139.39ZM238.669 142.251C238.444 143.683 237.775 145.123 236.44 146.612L249.095 157.963C252.291 154.401 254.656 150.023 255.463 144.892L238.669 142.251ZM236.44 146.612C234.815 148.424 232.254 150.231 228.713 151.787L235.551 167.351C240.612 165.127 245.413 162.069 249.095 157.963L236.44 146.612ZM228.713 151.787C219.467 155.849 206.194 157.041 195.417 154.795C190.069 153.681 186.027 151.859 183.503 149.778C181.189 147.872 180.263 145.906 180.263 143.572H163.263C163.263 151.791 167.128 158.312 172.69 162.897C178.042 167.307 184.96 169.981 191.949 171.438C205.848 174.334 222.759 172.97 235.551 167.351L228.713 151.787ZM180.263 143.572C180.263 138.831 181.579 135.921 183.134 134.042C184.757 132.079 187.2 130.576 190.436 129.687C197.276 127.808 205.582 129.238 210.188 131.979L218.883 117.371C210.25 112.232 197.17 110.207 185.933 113.294C180.131 114.888 174.363 117.974 170.035 123.205C165.638 128.52 163.263 135.408 163.263 143.572H180.263ZM210.188 131.979C218.702 137.047 233.67 143.685 244.2 148.114L250.791 132.443C240.149 127.968 226.236 121.747 218.883 117.371L210.188 131.979ZM244.2 148.114C247.321 149.426 250.119 150.573 252.34 151.462L258.66 135.681C256.537 134.831 253.829 133.721 250.791 132.444L244.2 148.114ZM372.052 213.059L260.302 136.558L250.698 150.585L362.448 227.087L372.052 213.059ZM260.302 136.558L252.484 131.206L242.881 145.234L250.698 150.585L260.302 136.558ZM252.484 131.206L148.552 60.0563L138.948 74.0842L242.881 145.234L252.484 131.206ZM208.487 33.0535C236.833 13.6488 274.167 13.6488 302.513 33.0535L312.116 19.0257C277.981 -4.34189 233.019 -4.34191 198.884 19.0257L208.487 33.0535ZM470.5 300.509C470.5 328.05 456.92 353.812 434.218 369.353L443.821 383.381C471.157 364.667 487.5 333.655 487.5 300.509H470.5ZM23.5 300.546C23.5 333.695 39.8462 364.67 67.1789 383.381L76.7821 369.353C54.0766 353.809 40.5 328.083 40.5 300.546H23.5Z" fill="#E3C36F"/>
</g>
<defs>
<filter id="filter0_i" x="23.5" y="1.5" width="464" height="517" filterUnits="userSpaceOnUse" color-interpolation-filters="sRGB">
<feFlood flood-opacity="0" result="BackgroundImageFix"/>
<feBlend mode="normal" in="SourceGraphic" in2="BackgroundImageFix" result="shape"/>
<feColorMatrix in="SourceAlpha" type="matrix" values="0 0 0 0 0 0 0 0 0 0 0 0 0 0 0 0 0 0 127 0" result="hardAlpha"/>
<feOffset dy="8"/>
<feGaussianBlur stdDeviation="6"/>
<feComposite in2="hardAlpha" operator="arithmetic" k2="-1" k3="1"/>
<feColorMatrix type="matrix" values="0 0 0 0 0 0 0 0 0 0 0 0 0 0 0 0 0 0 0.25 0"/>
<feBlend mode="normal" in2="shape" result="effect1_innerShadow"/>
</filter>
</defs>
</svg>
