<svg width="512" height="512" viewBox="0 0 512 512" fill="none" xmlns="http://www.w3.org/2000/svg">
<path fill-rule="evenodd" clip-rule="evenodd" d="M172.732 20.7854C173.365 20.4351 174.007 20.2577 174.696 20.2506C176.171 20.2365 177.57 20.9722 178.357 22.3897L199.159 59.8242C216.176 52.2887 235.263 48.0591 255.405 48.0591C275.547 48.0591 294.634 52.2887 311.651 59.8242L332.453 22.3897C333.24 20.9722 334.638 20.2364 336.114 20.2506C336.803 20.2572 337.445 20.4351 338.078 20.7854C340.156 21.9357 340.84 24.3202 339.685 26.4006L319.15 63.434C358.657 83.9561 385.342 122.956 385.396 167.716H125.414C125.468 122.956 152.152 83.9561 191.659 63.434L171.125 26.4006C169.97 24.3202 170.654 21.9357 172.732 20.7854ZM125.414 366.074V177.966H385.396V366.074C385.396 383.455 371.38 397.447 353.969 397.447H333.123V461.621C333.123 477.826 320.206 490.721 303.973 490.721C287.74 490.721 274.823 477.826 274.823 461.621V397.447H235.987V461.621C235.987 477.826 223.07 490.721 206.837 490.721C190.604 490.721 177.687 477.826 177.687 461.621V397.447H156.84C139.43 397.447 125.414 383.455 125.414 366.074ZM184.561 109.38C184.561 103.455 189.474 98.5511 195.409 98.5511C201.344 98.5511 206.256 103.455 206.256 109.38C206.256 115.305 201.344 120.21 195.409 120.21C189.474 120.21 184.561 115.305 184.561 109.38ZM304.553 109.38C304.553 103.455 309.465 98.5511 315.4 98.5511C321.335 98.5511 326.248 103.455 326.248 109.38C326.248 115.305 321.335 120.21 315.4 120.21C309.465 120.21 304.553 115.305 304.553 109.38ZM56.2681 202.075C56.2681 185.869 69.1848 172.974 85.4178 172.974C101.651 172.974 114.568 185.869 114.568 202.075V323.292C114.568 339.497 101.651 352.392 85.4178 352.392C69.1848 352.392 56.2681 339.497 56.2681 323.292V202.075ZM396.244 202.075C396.244 185.869 409.161 172.974 425.394 172.974C441.627 172.974 454.544 185.869 454.544 202.075V323.292C454.544 339.497 441.627 352.392 425.394 352.392C409.161 352.392 396.244 339.497 396.244 323.292V202.075Z" fill="black" fill-opacity="0.3"/>
</svg>
