<svg width="695" height="215" viewBox="0 0 695 215" fill="none" xmlns="http://www.w3.org/2000/svg">
<g clip-path="url(#clip0)">
<path d="M31.0546 34.7708C27.5605 28.1266 32.8025 15.7504 40.3688 15.7504C47.9351 15.7504 53.177 28.1265 49.683 34.7707C45.2799 43.1438 41.6714 54.4509 41.6714 69.0224C41.6714 91.2168 50.0429 120.545 56.843 140.708C60.6292 151.934 52.3235 163.998 40.3688 163.998C28.4141 163.998 20.1085 151.934 23.8947 140.708C30.6947 120.545 39.0662 91.2168 39.0662 69.0224C39.0662 54.4509 35.4577 43.1439 31.0546 34.7708Z" fill="url(#paint0_linear)"/>
<path d="M76.0262 191.98C79.5202 198.624 74.2783 211 66.7119 211C59.1456 211 53.9037 198.624 57.3977 191.98C61.8009 183.607 65.4093 172.3 65.4093 157.728C65.4093 135.534 57.0378 106.205 50.2377 86.0428C46.4515 74.8167 54.7572 62.752 66.7119 62.752C78.6666 62.752 86.9722 74.8167 83.1861 86.0428C76.386 106.205 68.0145 135.534 68.0145 157.728C68.0145 172.299 71.623 183.606 76.0262 191.98Z" fill="url(#paint1_linear)"/>
<path d="M81.1478 25.0381C76.8932 16.2202 83.1843 4 93.0551 4C102.926 4 109.217 16.2202 104.962 25.038C99.478 36.4048 94.3577 51.6649 94.3577 69.0224C94.3577 91.2168 102.729 120.545 109.529 140.708C113.316 151.934 105.01 163.998 93.0552 163.998C81.1005 163.998 72.7948 151.934 76.581 140.708C83.3811 120.545 91.7526 91.2168 91.7526 69.0224C91.7526 51.6649 86.6323 36.4049 81.1478 25.0381Z" fill="url(#paint2_linear)"/>
<path d="M81.4101 183.156C81.4101 176.599 88.9095 171.996 95.5091 171.447C99.4931 171.116 103.802 169.719 107.691 166.235C118.919 156.178 115.084 137.036 110.028 120.923C106.372 109.276 103.245 96.6437 101.394 88.7134C100.435 84.6071 102.506 80.9889 107.857 80.7396C113 80.5 114.532 84.136 114.252 87.8353C113.769 94.2105 113.524 104.724 115.084 118.733C117.789 143.03 126.969 157.898 110.028 177.522C108.022 179.845 101.683 185.053 95.4793 189.958C89.7619 194.478 81.4101 190.4 81.4101 183.156Z" fill="url(#paint3_linear)"/>
<path d="M52.0188 183.157C52.0188 176.6 44.5198 171.996 37.9199 171.448C33.9349 171.117 29.6251 169.72 25.7343 166.236C14.505 156.179 18.505 137.269 23.3977 120.926C34.3223 84.4336 35.0556 67.6402 34.1475 59.7139C33.7221 56 32.5 53 28.1117 52.5421C23.7234 52.0841 19.4625 57 20.602 62.9069C22.4139 72.2989 23.282 89.3144 18.3408 118.736C14.3963 142.223 6.45424 157.899 23.3977 177.522C25.4035 179.846 31.7442 185.055 37.9493 189.959C43.6672 194.479 52.0188 190.4 52.0188 183.157Z" fill="url(#paint4_linear)"/>
<path d="M252.184 56.94L263.704 58.32V147H253.564L252.604 138.9C248.124 145.3 242.164 148.5 234.724 148.5C229.284 148.5 224.784 147.12 221.224 144.36C217.704 141.56 215.084 137.68 213.364 132.72C211.644 127.76 210.784 122 210.784 115.44C210.784 109.04 211.764 103.36 213.724 98.4C215.724 93.4 218.564 89.46 222.244 86.58C225.964 83.7 230.444 82.26 235.684 82.26C242.484 82.26 247.984 84.66 252.184 89.46V56.94ZM238.684 91.32C233.724 91.32 229.884 93.3 227.164 97.26C224.484 101.22 223.144 107.28 223.144 115.44C223.144 123.56 224.364 129.58 226.804 133.5C229.284 137.42 232.844 139.38 237.484 139.38C240.804 139.38 243.664 138.44 246.064 136.56C248.504 134.64 250.544 132.4 252.184 129.84V98.94C250.544 96.54 248.564 94.68 246.244 93.36C243.964 92 241.444 91.32 238.684 91.32ZM295.877 119.28C296.197 126.24 298.077 131.3 301.517 134.46C304.997 137.62 309.117 139.2 313.877 139.2C317.037 139.2 319.937 138.72 322.577 137.76C325.217 136.8 327.897 135.4 330.617 133.56L335.837 140.82C332.877 143.18 329.457 145.06 325.577 146.46C321.697 147.82 317.677 148.5 313.517 148.5C307.197 148.5 301.817 147.12 297.377 144.36C292.977 141.56 289.617 137.68 287.297 132.72C285.017 127.76 283.877 122 283.877 115.44C283.877 109.08 285.017 103.4 287.297 98.4C289.617 93.4 292.877 89.46 297.077 86.58C301.277 83.7 306.277 82.26 312.077 82.26C320.237 82.26 326.657 85.06 331.337 90.66C336.057 96.22 338.417 103.84 338.417 113.52C338.417 114.6 338.397 115.64 338.357 116.64C338.317 117.64 338.257 118.52 338.177 119.28H295.877ZM312.197 91.26C307.677 91.26 303.937 92.86 300.977 96.06C298.017 99.26 296.317 104.2 295.877 110.88H327.317C327.197 104.48 325.797 99.62 323.117 96.3C320.477 92.94 316.837 91.26 312.197 91.26ZM412.41 83.76L389.73 147H376.29L353.73 83.76H365.97L383.31 136.98L400.59 83.76H412.41ZM484.303 83.76L462.223 147.36C460.703 151.84 458.743 155.88 456.343 159.48C453.943 163.12 450.843 166.08 447.043 168.36C443.283 170.64 438.543 172.06 432.823 172.62L431.203 163.68C435.523 163 438.943 161.96 441.463 160.56C444.023 159.16 446.023 157.34 447.463 155.1C448.943 152.86 450.263 150.16 451.423 147H447.523L425.743 83.76H438.043L455.263 138.6L472.423 83.76H484.303ZM502.437 147V83.76H512.337L513.177 92.28C515.777 89.04 518.937 86.56 522.657 84.84C526.417 83.12 530.157 82.26 533.877 82.26C539.957 82.26 544.437 83.92 547.317 87.24C550.197 90.52 551.637 95.1 551.637 100.98V147H540.117V108.06C540.117 104.06 539.877 100.82 539.397 98.34C538.957 95.86 538.017 94.06 536.577 92.94C535.137 91.78 532.957 91.2 530.037 91.2C526.597 91.2 523.477 92.26 520.677 94.38C517.877 96.5 515.637 98.78 513.957 101.22V147H502.437ZM583.69 119.28C584.01 126.24 585.89 131.3 589.33 134.46C592.81 137.62 596.93 139.2 601.69 139.2C604.85 139.2 607.75 138.72 610.39 137.76C613.03 136.8 615.71 135.4 618.43 133.56L623.65 140.82C620.69 143.18 617.27 145.06 613.39 146.46C609.51 147.82 605.49 148.5 601.33 148.5C595.01 148.5 589.63 147.12 585.19 144.36C580.79 141.56 577.43 137.68 575.11 132.72C572.83 127.76 571.69 122 571.69 115.44C571.69 109.08 572.83 103.4 575.11 98.4C577.43 93.4 580.69 89.46 584.89 86.58C589.09 83.7 594.09 82.26 599.89 82.26C608.05 82.26 614.47 85.06 619.15 90.66C623.87 96.22 626.23 103.84 626.23 113.52C626.23 114.6 626.21 115.64 626.17 116.64C626.13 117.64 626.07 118.52 625.99 119.28H583.69ZM600.01 91.26C595.49 91.26 591.75 92.86 588.79 96.06C585.83 99.26 584.13 104.2 583.69 110.88H615.13C615.01 104.48 613.61 99.62 610.93 96.3C608.29 92.94 604.65 91.26 600.01 91.26ZM659.843 137.4C659.843 134.36 660.883 131.78 662.963 129.66C665.083 127.54 667.683 126.48 670.763 126.48C673.923 126.48 676.563 127.54 678.683 129.66C680.803 131.78 681.863 134.36 681.863 137.4C681.863 140.48 680.803 143.1 678.683 145.26C676.563 147.42 673.923 148.5 670.763 148.5C667.683 148.5 665.083 147.42 662.963 145.26C660.883 143.1 659.843 140.48 659.843 137.4Z" fill="white"/>
</g>
<defs>
<linearGradient id="paint0_linear" x1="32.5094" y1="52.5421" x2="32.5094" y2="200.82" gradientUnits="userSpaceOnUse">
<stop stop-color="#E8D98C"/>
<stop offset="1" stop-color="#E29C7D"/>
</linearGradient>
<linearGradient id="paint1_linear" x1="32.5094" y1="52.5421" x2="32.5094" y2="200.82" gradientUnits="userSpaceOnUse">
<stop stop-color="#E8D98C"/>
<stop offset="1" stop-color="#E29C7D"/>
</linearGradient>
<linearGradient id="paint2_linear" x1="32.5094" y1="52.5421" x2="32.5094" y2="200.82" gradientUnits="userSpaceOnUse">
<stop stop-color="#E8D98C"/>
<stop offset="1" stop-color="#E29C7D"/>
</linearGradient>
<linearGradient id="paint3_linear" x1="32.5094" y1="52.5421" x2="32.5094" y2="200.82" gradientUnits="userSpaceOnUse">
<stop stop-color="#E8D98C"/>
<stop offset="1" stop-color="#E29C7D"/>
</linearGradient>
<linearGradient id="paint4_linear" x1="32.5094" y1="52.5421" x2="32.5094" y2="200.82" gradientUnits="userSpaceOnUse">
<stop stop-color="#E8D98C"/>
<stop offset="1" stop-color="#E29C7D"/>
</linearGradient>
<clipPath id="clip0">
<rect width="695" height="215" fill="white"/>
</clipPath>
</defs>
</svg>
