<svg width="656" height="215" viewBox="0 0 656 215" fill="none" xmlns="http://www.w3.org/2000/svg">
<path d="M67.1858 92.1833C62.5348 78.8959 72.185 63.9628 86.3824 63.9628C100.58 63.9628 110.23 78.8959 105.579 92.1833C98.072 113.63 90.618 143.127 96.0534 165.335C97.3971 170.825 99.7894 176.936 102.493 182.821C108.009 194.827 99.6995 209.596 86.3823 209.596C73.0652 209.596 64.7553 194.827 70.2715 182.821C72.9753 176.936 75.3676 170.825 76.7113 165.335C82.1467 143.127 74.6927 113.63 67.1858 92.1833Z" fill="url(#paint0_linear)"/>
<path d="M141.619 147.737C145.751 161.292 135.723 175.728 121.428 175.728C107.133 175.728 97.1047 161.292 101.237 147.737C109.066 122.054 117.877 83.814 112.026 55.4957C110.394 47.6005 107.202 38.4391 103.812 30.0008C98.7612 17.4252 107.765 3 121.428 3C135.091 3 144.095 17.4252 139.043 30.0008C135.654 38.4391 132.462 47.6005 130.83 55.4957C124.979 83.814 133.79 122.054 141.619 147.737Z" fill="url(#paint1_linear)"/>
<path d="M134.952 207.888C124.039 218.175 109.116 207.614 113.223 193.256C115.08 186.764 120.813 182.137 127.291 180.049C138.9 176.308 154.664 167.229 147.925 146.093C142.172 128.045 138.24 108.156 135.932 94.4653C134.415 85.4655 141.501 77.5098 150.713 77.5098C162.268 77.5098 170.346 90.035 167.385 101.099C163.898 114.126 161.314 131.322 164.166 149.48C167.551 171.038 151.581 192.213 134.952 207.888Z" fill="url(#paint2_linear)"/>
<path d="M40.7021 209.796C49.9561 215.612 60.6925 208.101 59.9117 197.272C59.4003 190.181 53.8302 184.482 46.9467 182.469C33.7414 178.607 15.3261 169.504 22.275 149.48C35.261 112.059 34.3878 81.9056 32.6041 66.8279C31.8672 60.5993 26.4052 56.3424 20.0743 56.3424C9.32039 56.3424 1.70324 68.4321 4.63115 78.6821C9.52114 95.8011 13.4131 121.863 6.88925 153.713C1.60027 179.535 23.1137 198.741 40.7021 209.796Z" fill="url(#paint3_linear)"/>
<path d="M69.0392 148.008C73.3811 161.244 63.6777 175.728 49.6277 175.728C35.5777 175.728 25.8742 161.244 30.2161 148.008C37.7941 124.907 45.7904 91.9163 40.2253 67.2831C38.7592 60.7939 36.0217 53.4225 33.0132 46.4608C27.7747 34.3387 36.3161 19.9341 49.6277 19.9341C62.9393 19.9341 71.4807 34.3387 66.2421 46.4608C63.2336 53.4225 60.4961 60.7939 59.0301 67.2831C53.4649 91.9163 61.4612 124.907 69.0392 148.008Z" fill="url(#paint4_linear)"/>
<path d="M244.074 86C249.185 86 253.677 87.1719 257.551 89.5156C261.424 91.8268 264.419 95.1797 266.535 99.5742C268.684 103.936 269.758 109.079 269.758 115.004C269.758 120.928 268.684 126.072 266.535 130.434C264.419 134.796 261.424 138.148 257.551 140.492C253.677 142.803 249.185 143.959 244.074 143.959H221.076C219.969 143.959 219.172 143.715 218.684 143.227C218.228 142.706 218 141.843 218 140.639C218 139.434 218.228 138.588 218.684 138.1C219.172 137.579 219.969 137.318 221.076 137.318H226.545V92.6406H221.076C219.969 92.6406 219.172 92.3965 218.684 91.9082C218.228 91.3874 218 90.5247 218 89.3203C218 88.1159 218.228 87.2695 218.684 86.7812C219.172 86.2604 219.969 86 221.076 86H244.074ZM233.869 137.318H242.951C246.825 137.318 250.194 136.472 253.059 134.779C255.923 133.054 258.137 130.531 259.699 127.211C261.262 123.858 262.043 119.789 262.043 115.004C262.043 110.219 261.262 106.166 259.699 102.846C258.137 99.4928 255.923 96.9538 253.059 95.2285C250.194 93.5033 246.825 92.6406 242.951 92.6406H233.869V137.318Z" fill="white"/>
<path d="M319.475 97.7676C324.195 97.7676 328.215 98.7279 331.535 100.648C334.888 102.536 337.46 105.173 339.25 108.559C341.04 111.911 342.066 115.785 342.326 120.18C342.326 121.286 342.082 122.068 341.594 122.523C341.138 122.979 340.357 123.207 339.25 123.207H303.898C304.126 128.057 305.559 131.736 308.195 134.242C310.865 136.716 314.624 137.953 319.475 137.953C322.469 137.953 325.432 137.579 328.361 136.83C331.291 136.049 333.863 135.023 336.076 133.754C336.63 133.461 337.134 133.314 337.59 133.314C338.729 133.314 339.657 134.177 340.373 135.902C340.666 136.586 340.812 137.204 340.812 137.758C340.812 139.06 340.096 140.069 338.664 140.785C336.158 142.055 333.195 143.08 329.777 143.861C326.359 144.643 322.925 145.033 319.475 145.033C314.559 145.033 310.36 144.089 306.877 142.201C303.394 140.313 300.741 137.595 298.918 134.047C297.095 130.499 296.184 126.283 296.184 121.4C296.184 116.745 297.176 112.628 299.162 109.047C301.148 105.466 303.898 102.699 307.414 100.746C310.93 98.7604 314.95 97.7676 319.475 97.7676ZM319.475 104.848C315.471 104.848 312.15 105.873 309.514 107.924C306.91 109.942 305.201 112.758 304.387 116.371H334.221C333.537 112.628 331.958 109.779 329.484 107.826C327.043 105.84 323.706 104.848 319.475 104.848Z" fill="white"/>
<path d="M418.459 98.8418C419.566 98.8418 420.347 99.1022 420.803 99.623C421.291 100.111 421.535 100.958 421.535 102.162C421.535 103.367 421.291 104.229 420.803 104.75C420.347 105.238 419.566 105.482 418.459 105.482H415.383L399.611 141.859C399.156 142.966 398.472 143.764 397.561 144.252C396.682 144.773 395.445 145.033 393.85 145.033C392.287 145.033 391.066 144.773 390.188 144.252C389.341 143.764 388.674 142.966 388.186 141.859L372.561 105.482H369.533C368.426 105.482 367.629 105.238 367.141 104.75C366.685 104.229 366.457 103.367 366.457 102.162C366.457 100.958 366.685 100.111 367.141 99.623C367.629 99.1022 368.426 98.8418 369.533 98.8418H386.818C387.925 98.8418 388.706 99.1022 389.162 99.623C389.65 100.111 389.895 100.958 389.895 102.162C389.895 103.367 389.65 104.229 389.162 104.75C388.706 105.238 387.925 105.482 386.818 105.482H380.568L393.898 137.318L407.375 105.482H403.127C402.02 105.482 401.223 105.238 400.734 104.75C400.279 104.229 400.051 103.367 400.051 102.162C400.051 100.958 400.279 100.111 400.734 99.623C401.223 99.1022 402.02 98.8418 403.127 98.8418H418.459Z" fill="white"/>
<path d="M493.42 98.8418C494.527 98.8418 495.308 99.1022 495.764 99.623C496.252 100.111 496.496 100.958 496.496 102.162C496.496 103.367 496.252 104.229 495.764 104.75C495.308 105.238 494.527 105.482 493.42 105.482H490.393L470.422 146.4C468.306 150.73 466.239 154.132 464.221 156.605C462.202 159.079 459.924 160.886 457.385 162.025C454.878 163.197 451.818 163.848 448.205 163.979C447.066 164.011 446.187 163.718 445.568 163.1C444.95 162.514 444.641 161.456 444.641 159.926C444.641 157.81 445.503 156.703 447.229 156.605C450.354 156.443 452.827 155.922 454.65 155.043C456.506 154.164 458.199 152.65 459.729 150.502C461.291 148.386 463.195 145.066 465.441 140.541L447.57 105.482H444.494C443.387 105.482 442.59 105.238 442.102 104.75C441.646 104.229 441.418 103.367 441.418 102.162C441.418 100.958 441.646 100.111 442.102 99.623C442.59 99.1022 443.387 98.8418 444.494 98.8418H461.779C462.886 98.8418 463.667 99.1022 464.123 99.623C464.611 100.111 464.855 100.958 464.855 102.162C464.855 103.367 464.611 104.229 464.123 104.75C463.667 105.238 462.886 105.482 461.779 105.482H455.529L469.299 132.924L482.434 105.482H478.088C476.981 105.482 476.184 105.238 475.695 104.75C475.24 104.229 475.012 103.367 475.012 102.162C475.012 100.958 475.24 100.111 475.695 99.623C476.184 99.1022 476.981 98.8418 478.088 98.8418H493.42Z" fill="white"/>
<path d="M549.436 97.7676C552.398 97.7676 554.969 98.4186 557.15 99.7207C559.331 100.99 561.008 102.829 562.18 105.238C563.352 107.647 563.938 110.463 563.938 113.686V137.318H567.941C569.048 137.318 569.829 137.579 570.285 138.1C570.773 138.588 571.018 139.434 571.018 140.639C571.018 141.843 570.773 142.706 570.285 143.227C569.829 143.715 569.048 143.959 567.941 143.959H552.121C551.014 143.959 550.217 143.715 549.729 143.227C549.273 142.706 549.045 141.843 549.045 140.639C549.045 139.434 549.273 138.588 549.729 138.1C550.217 137.579 551.014 137.318 552.121 137.318H556.613V114.418C556.613 111.521 555.946 109.226 554.611 107.533C553.277 105.84 551.307 104.994 548.703 104.994C545.936 104.994 543.348 105.792 540.939 107.387C538.563 108.982 536.659 111.179 535.227 113.979C533.794 116.778 533.078 119.903 533.078 123.354V137.318H537.57C538.677 137.318 539.458 137.579 539.914 138.1C540.402 138.588 540.646 139.434 540.646 140.639C540.646 141.843 540.402 142.706 539.914 143.227C539.458 143.715 538.677 143.959 537.57 143.959H521.75C520.643 143.959 519.846 143.715 519.357 143.227C518.902 142.706 518.674 141.843 518.674 140.639C518.674 139.434 518.902 138.588 519.357 138.1C519.846 137.579 520.643 137.318 521.75 137.318H525.754V105.482H520.773C519.667 105.482 518.869 105.238 518.381 104.75C517.925 104.229 517.697 103.367 517.697 102.162C517.697 100.958 517.925 100.111 518.381 99.623C518.869 99.1022 519.667 98.8418 520.773 98.8418H529.514C530.62 98.8418 531.402 99.1022 531.857 99.623C532.346 100.111 532.59 100.958 532.59 102.162V108.021C534.738 104.701 537.245 102.162 540.109 100.404C543.007 98.6465 546.115 97.7676 549.436 97.7676Z" fill="white"/>
<path d="M619.318 97.7676C624.038 97.7676 628.059 98.7279 631.379 100.648C634.732 102.536 637.303 105.173 639.094 108.559C640.884 111.911 641.91 115.785 642.17 120.18C642.17 121.286 641.926 122.068 641.438 122.523C640.982 122.979 640.201 123.207 639.094 123.207H603.742C603.97 128.057 605.402 131.736 608.039 134.242C610.708 136.716 614.468 137.953 619.318 137.953C622.313 137.953 625.275 137.579 628.205 136.83C631.135 136.049 633.706 135.023 635.92 133.754C636.473 133.461 636.978 133.314 637.434 133.314C638.573 133.314 639.501 134.177 640.217 135.902C640.51 136.586 640.656 137.204 640.656 137.758C640.656 139.06 639.94 140.069 638.508 140.785C636.001 142.055 633.039 143.08 629.621 143.861C626.203 144.643 622.769 145.033 619.318 145.033C614.403 145.033 610.204 144.089 606.721 142.201C603.238 140.313 600.585 137.595 598.762 134.047C596.939 130.499 596.027 126.283 596.027 121.4C596.027 116.745 597.02 112.628 599.006 109.047C600.992 105.466 603.742 102.699 607.258 100.746C610.773 98.7604 614.794 97.7676 619.318 97.7676ZM619.318 104.848C615.314 104.848 611.994 105.873 609.357 107.924C606.753 109.942 605.044 112.758 604.23 116.371H634.064C633.381 112.628 631.802 109.779 629.328 107.826C626.887 105.84 623.55 104.848 619.318 104.848Z" fill="white"/>
<defs>
<linearGradient id="paint0_linear" x1="33.9022" y1="3" x2="33.9022" y2="211.169" gradientUnits="userSpaceOnUse">
<stop stop-color="#E8D98C"/>
<stop offset="1" stop-color="#E29C7D"/>
</linearGradient>
<linearGradient id="paint1_linear" x1="33.9022" y1="3" x2="33.9022" y2="211.169" gradientUnits="userSpaceOnUse">
<stop stop-color="#E8D98C"/>
<stop offset="1" stop-color="#E29C7D"/>
</linearGradient>
<linearGradient id="paint2_linear" x1="33.9022" y1="3" x2="33.9022" y2="211.169" gradientUnits="userSpaceOnUse">
<stop stop-color="#E8D98C"/>
<stop offset="1" stop-color="#E29C7D"/>
</linearGradient>
<linearGradient id="paint3_linear" x1="33.9022" y1="3" x2="33.9022" y2="211.169" gradientUnits="userSpaceOnUse">
<stop stop-color="#E8D98C"/>
<stop offset="1" stop-color="#E29C7D"/>
</linearGradient>
<linearGradient id="paint4_linear" x1="33.9022" y1="3" x2="33.9022" y2="211.169" gradientUnits="userSpaceOnUse">
<stop stop-color="#E8D98C"/>
<stop offset="1" stop-color="#E29C7D"/>
</linearGradient>
</defs>
</svg>
