<svg width="695" height="215" viewBox="0 0 695 215" fill="none" xmlns="http://www.w3.org/2000/svg">
<g clip-path="url(#clip0)">
<path d="M31.0546 34.7708C27.5605 28.1266 32.8025 15.7504 40.3688 15.7504C47.9351 15.7504 53.177 28.1265 49.683 34.7707C45.2799 43.1438 41.6714 54.4509 41.6714 69.0224C41.6714 91.2167 50.0429 120.545 56.843 140.708C60.6292 151.934 52.3235 163.998 40.3688 163.998C28.4141 163.998 20.1085 151.934 23.8947 140.708C30.6947 120.545 39.0662 91.2168 39.0662 69.0224C39.0662 54.4509 35.4577 43.1439 31.0546 34.7708Z" fill="url(#paint0_linear)"/>
<path d="M76.0262 191.98C79.5202 198.624 74.2783 211 66.7119 211C59.1456 211 53.9037 198.624 57.3977 191.98C61.8009 183.607 65.4093 172.3 65.4093 157.728C65.4093 135.534 57.0378 106.205 50.2377 86.0428C46.4515 74.8167 54.7572 62.752 66.7119 62.752C78.6666 62.752 86.9722 74.8167 83.1861 86.0428C76.386 106.205 68.0145 135.534 68.0145 157.728C68.0145 172.299 71.623 183.606 76.0262 191.98Z" fill="url(#paint1_linear)"/>
<path d="M81.1478 25.0381C76.8931 16.2202 83.1843 4 93.0551 4C102.926 4 109.217 16.2202 104.962 25.038C99.478 36.4048 94.3577 51.6649 94.3577 69.0224C94.3577 91.2167 102.729 120.545 109.529 140.708C113.316 151.934 105.01 163.998 93.0552 163.998C81.1005 163.998 72.7948 151.934 76.581 140.708C83.3811 120.545 91.7526 91.2168 91.7526 69.0224C91.7526 51.6649 86.6323 36.4049 81.1478 25.0381Z" fill="url(#paint2_linear)"/>
<path d="M81.4101 183.156C81.4101 176.599 88.9095 171.996 95.5091 171.447C99.4931 171.116 103.802 169.719 107.691 166.235C118.919 156.178 115.084 137.036 110.028 120.923C106.372 109.276 103.245 96.6437 101.394 88.7134C100.435 84.6072 102.506 80.9889 107.857 80.7396C113 80.5 114.532 84.136 114.252 87.8353C113.769 94.2105 113.524 104.724 115.084 118.733C117.789 143.03 126.969 157.898 110.028 177.522C108.022 179.845 101.683 185.053 95.4793 189.958C89.7619 194.478 81.4101 190.4 81.4101 183.156Z" fill="url(#paint3_linear)"/>
<path d="M52.0188 183.157C52.0188 176.6 44.5198 171.996 37.9199 171.448C33.9349 171.117 29.6251 169.72 25.7343 166.236C14.505 156.179 18.505 137.269 23.3977 120.926C34.3223 84.4336 35.0556 67.6402 34.1475 59.7139C33.7221 56 32.5 53 28.1117 52.5421C23.7234 52.0841 19.4625 57 20.602 62.9069C22.4139 72.2989 23.282 89.3144 18.3408 118.736C14.3963 142.223 6.45424 157.899 23.3977 177.522C25.4035 179.846 31.7442 185.055 37.9493 189.959C43.6672 194.479 52.0188 190.4 52.0188 183.157Z" fill="url(#paint4_linear)"/>
<path d="M261.244 132.48C261.244 135 261.644 136.84 262.444 138C263.244 139.12 264.504 139.96 266.224 140.52L263.524 148.44C260.644 148.08 258.124 147.22 255.964 145.86C253.844 144.5 252.284 142.42 251.284 139.62C249.004 142.58 246.124 144.8 242.644 146.28C239.164 147.76 235.384 148.5 231.304 148.5C224.944 148.5 219.924 146.7 216.244 143.1C212.564 139.5 210.724 134.76 210.724 128.88C210.724 122.32 213.284 117.28 218.404 113.76C223.564 110.2 230.964 108.42 240.604 108.42H249.784V103.62C249.784 99.26 248.484 96.16 245.884 94.32C243.324 92.48 239.744 91.56 235.144 91.56C233.024 91.56 230.524 91.82 227.644 92.34C224.804 92.86 221.764 93.68 218.524 94.8L215.584 86.4C219.464 84.92 223.204 83.86 226.804 83.22C230.404 82.58 233.764 82.26 236.884 82.26C245.004 82.26 251.084 84.12 255.124 87.84C259.204 91.56 261.244 96.62 261.244 103.02V132.48ZM234.544 139.86C237.464 139.86 240.284 139.1 243.004 137.58C245.764 136.06 248.024 133.94 249.784 131.22V115.92H241.384C234.704 115.92 229.964 117.06 227.164 119.34C224.364 121.58 222.964 124.66 222.964 128.58C222.964 136.1 226.824 139.86 234.544 139.86ZM298.097 83.76V128.28C298.097 132.28 298.897 135.16 300.497 136.92C302.137 138.64 304.657 139.5 308.057 139.5C311.257 139.5 314.317 138.56 317.237 136.68C320.197 134.8 322.497 132.56 324.137 129.96V83.76H335.657V147H325.757L324.917 138.66C322.477 141.86 319.437 144.3 315.797 145.98C312.197 147.66 308.537 148.5 304.817 148.5C298.697 148.5 294.117 146.84 291.077 143.52C288.077 140.2 286.577 135.6 286.577 129.72V83.76H298.097ZM409.89 143.76C407.65 145.2 404.95 146.34 401.79 147.18C398.67 148.06 395.51 148.5 392.31 148.5C385.27 148.5 379.87 146.66 376.11 142.98C372.39 139.3 370.53 134.52 370.53 128.64V92.4H356.19V83.76H370.53V69.48L382.05 68.1V83.76H403.65L402.33 92.4H382.05V128.52C382.05 132 382.93 134.62 384.69 136.38C386.49 138.14 389.47 139.02 393.63 139.02C395.95 139.02 398.09 138.76 400.05 138.24C402.05 137.68 403.89 136.94 405.57 136.02L409.89 143.76ZM455.143 82.26C464.183 82.26 471.043 85.26 475.723 91.26C480.443 97.26 482.803 105.28 482.803 115.32C482.803 121.84 481.723 127.6 479.563 132.6C477.443 137.6 474.323 141.5 470.203 144.3C466.083 147.1 461.023 148.5 455.023 148.5C445.983 148.5 439.083 145.5 434.323 139.5C429.603 133.5 427.243 125.48 427.243 115.44C427.243 108.88 428.303 103.12 430.423 98.16C432.583 93.16 435.723 89.26 439.843 86.46C444.003 83.66 449.103 82.26 455.143 82.26ZM455.143 91.44C449.943 91.44 446.023 93.4 443.383 97.32C440.743 101.2 439.423 107.24 439.423 115.44C439.423 123.56 440.723 129.58 443.323 133.5C445.923 137.38 449.823 139.32 455.023 139.32C460.223 139.32 464.123 137.38 466.723 133.5C469.323 129.58 470.623 123.52 470.623 115.32C470.623 107.16 469.323 101.14 466.723 97.26C464.123 93.38 460.263 91.44 455.143 91.44ZM502.437 147V83.76H512.337L513.177 92.28C515.777 89.04 518.937 86.56 522.657 84.84C526.417 83.12 530.157 82.26 533.877 82.26C539.957 82.26 544.437 83.92 547.317 87.24C550.197 90.52 551.637 95.1 551.637 100.98V147H540.117V108.06C540.117 104.06 539.877 100.82 539.397 98.34C538.957 95.86 538.017 94.06 536.577 92.94C535.137 91.78 532.957 91.2 530.037 91.2C526.597 91.2 523.477 92.26 520.677 94.38C517.877 96.5 515.637 98.78 513.957 101.22V147H502.437ZM583.69 119.28C584.01 126.24 585.89 131.3 589.33 134.46C592.81 137.62 596.93 139.2 601.69 139.2C604.85 139.2 607.75 138.72 610.39 137.76C613.03 136.8 615.71 135.4 618.43 133.56L623.65 140.82C620.69 143.18 617.27 145.06 613.39 146.46C609.51 147.82 605.49 148.5 601.33 148.5C595.01 148.5 589.63 147.12 585.19 144.36C580.79 141.56 577.43 137.68 575.11 132.72C572.83 127.76 571.69 122 571.69 115.44C571.69 109.08 572.83 103.4 575.11 98.4C577.43 93.4 580.69 89.46 584.89 86.58C589.09 83.7 594.09 82.26 599.89 82.26C608.05 82.26 614.47 85.06 619.15 90.66C623.87 96.22 626.23 103.84 626.23 113.52C626.23 114.6 626.21 115.64 626.17 116.64C626.13 117.64 626.07 118.52 625.99 119.28H583.69ZM600.01 91.26C595.49 91.26 591.75 92.86 588.79 96.06C585.83 99.26 584.13 104.2 583.69 110.88H615.13C615.01 104.48 613.61 99.62 610.93 96.3C608.29 92.94 604.65 91.26 600.01 91.26ZM659.843 137.4C659.843 134.36 660.883 131.78 662.963 129.66C665.083 127.54 667.683 126.48 670.763 126.48C673.923 126.48 676.563 127.54 678.683 129.66C680.803 131.78 681.863 134.36 681.863 137.4C681.863 140.48 680.803 143.1 678.683 145.26C676.563 147.42 673.923 148.5 670.763 148.5C667.683 148.5 665.083 147.42 662.963 145.26C660.883 143.1 659.843 140.48 659.843 137.4Z" fill="white"/>
</g>
<defs>
<linearGradient id="paint0_linear" x1="32.5094" y1="52.5421" x2="32.5094" y2="200.82" gradientUnits="userSpaceOnUse">
<stop stop-color="#E8D98C"/>
<stop offset="1" stop-color="#E29C7D"/>
</linearGradient>
<linearGradient id="paint1_linear" x1="32.5094" y1="52.5421" x2="32.5094" y2="200.82" gradientUnits="userSpaceOnUse">
<stop stop-color="#E8D98C"/>
<stop offset="1" stop-color="#E29C7D"/>
</linearGradient>
<linearGradient id="paint2_linear" x1="32.5094" y1="52.5421" x2="32.5094" y2="200.82" gradientUnits="userSpaceOnUse">
<stop stop-color="#E8D98C"/>
<stop offset="1" stop-color="#E29C7D"/>
</linearGradient>
<linearGradient id="paint3_linear" x1="32.5094" y1="52.5421" x2="32.5094" y2="200.82" gradientUnits="userSpaceOnUse">
<stop stop-color="#E8D98C"/>
<stop offset="1" stop-color="#E29C7D"/>
</linearGradient>
<linearGradient id="paint4_linear" x1="32.5094" y1="52.5421" x2="32.5094" y2="200.82" gradientUnits="userSpaceOnUse">
<stop stop-color="#E8D98C"/>
<stop offset="1" stop-color="#E29C7D"/>
</linearGradient>
<clipPath id="clip0">
<rect width="695" height="215" fill="white"/>
</clipPath>
</defs>
</svg>
