<svg width="1920" height="204" viewBox="0 0 1920 204" fill="none" xmlns="http://www.w3.org/2000/svg">
<g clip-path="url(#clip0)">
<path d="M0 79.1605C0 79.1605 172.829 60.8067 284 59.1605C497.123 56.0048 614.397 104.89 827.5 109.161C1122.83 115.079 1286.31 38.399 1581.5 49.1605C1714.12 53.9955 1920 79.1605 1920 79.1605V204.161H0V79.1605Z" fill="black" fill-opacity="0.07"/>
<path d="M0 79.1606C0 79.1606 296.528 122.554 486.5 110.161C632.249 100.653 697.996 4.16932 844 0.160645C1019.15 -4.64823 1125.08 99.9606 1300 110.161C1542.02 124.274 1920 79.1606 1920 79.1606V204.161H0V79.1606Z" fill="black" fill-opacity="0.07"/>
<path d="M0 79.1606C0 79.1606 412.52 169.268 678 149.661C883.098 134.513 987.69 27.7227 1193 39.6606C1374.3 50.2024 1457.07 190.307 1638 174.661C1753.84 164.643 1920 79.1606 1920 79.1606V204.161H0V79.1606Z" fill="black" fill-opacity="0.07"/>
</g>
<defs>
<clipPath id="clip0">
<rect width="1920" height="204" fill="white"/>
</clipPath>
</defs>
</svg>
