<svg width="604" height="690" viewBox="0 0 604 690" fill="none" xmlns="http://www.w3.org/2000/svg">
<g clip-path="url(#clip0)">
<path d="M171.307 545.798C174.885 545.798 178.03 546.619 180.741 548.259C183.453 549.877 185.549 552.224 187.03 555.3C188.534 558.354 189.286 561.954 189.286 566.101C189.286 570.248 188.534 573.848 187.03 576.902C185.549 579.955 183.453 582.302 180.741 583.943C178.03 585.561 174.885 586.37 171.307 586.37H155.209C154.434 586.37 153.876 586.199 153.534 585.857C153.215 585.492 153.056 584.889 153.056 584.045C153.056 583.202 153.215 582.61 153.534 582.268C153.876 581.903 154.434 581.721 155.209 581.721H159.037V550.447H155.209C154.434 550.447 153.876 550.276 153.534 549.934C153.215 549.569 153.056 548.966 153.056 548.123C153.056 547.279 153.215 546.687 153.534 546.345C153.876 545.981 154.434 545.798 155.209 545.798H171.307ZM164.164 581.721H170.521C173.233 581.721 175.591 581.129 177.597 579.944C179.602 578.736 181.151 576.97 182.245 574.646C183.339 572.299 183.886 569.451 183.886 566.101C183.886 562.751 183.339 559.915 182.245 557.59C181.151 555.243 179.602 553.466 177.597 552.258C175.591 551.051 173.233 550.447 170.521 550.447H164.164V581.721ZM224.088 554.036C227.392 554.036 230.206 554.708 232.53 556.052C234.877 557.374 236.677 559.22 237.931 561.589C239.184 563.936 239.902 566.648 240.084 569.724C240.084 570.499 239.913 571.046 239.571 571.365C239.252 571.684 238.705 571.843 237.931 571.843H213.184C213.344 575.238 214.347 577.813 216.192 579.568C218.061 581.3 220.693 582.166 224.088 582.166C226.184 582.166 228.258 581.903 230.308 581.379C232.359 580.833 234.159 580.115 235.709 579.226C236.096 579.021 236.449 578.918 236.768 578.918C237.566 578.918 238.215 579.522 238.717 580.73C238.922 581.208 239.024 581.641 239.024 582.029C239.024 582.94 238.523 583.647 237.52 584.148C235.766 585.037 233.692 585.754 231.3 586.301C228.907 586.848 226.503 587.122 224.088 587.122C220.647 587.122 217.708 586.461 215.269 585.139C212.831 583.818 210.974 581.915 209.698 579.431C208.422 576.947 207.784 573.997 207.784 570.579C207.784 567.32 208.479 564.438 209.869 561.931C211.259 559.425 213.184 557.488 215.645 556.121C218.106 554.731 220.92 554.036 224.088 554.036ZM224.088 558.992C221.285 558.992 218.961 559.709 217.115 561.145C215.292 562.558 214.096 564.529 213.526 567.058H234.41C233.932 564.438 232.826 562.444 231.095 561.077C229.386 559.687 227.05 558.992 224.088 558.992ZM293.377 554.788C294.152 554.788 294.698 554.97 295.017 555.334C295.359 555.676 295.53 556.269 295.53 557.112C295.53 557.955 295.359 558.559 295.017 558.923C294.698 559.265 294.152 559.436 293.377 559.436H291.224L280.183 584.9C279.864 585.675 279.386 586.233 278.748 586.575C278.133 586.939 277.267 587.122 276.15 587.122C275.057 587.122 274.202 586.939 273.587 586.575C272.994 586.233 272.527 585.675 272.185 584.9L261.248 559.436H259.129C258.354 559.436 257.796 559.265 257.454 558.923C257.135 558.559 256.975 557.955 256.975 557.112C256.975 556.269 257.135 555.676 257.454 555.334C257.796 554.97 258.354 554.788 259.129 554.788H271.228C272.003 554.788 272.55 554.97 272.869 555.334C273.211 555.676 273.382 556.269 273.382 557.112C273.382 557.955 273.211 558.559 272.869 558.923C272.55 559.265 272.003 559.436 271.228 559.436H266.853L276.184 581.721L285.618 559.436H282.644C281.87 559.436 281.311 559.265 280.97 558.923C280.651 558.559 280.491 557.955 280.491 557.112C280.491 556.269 280.651 555.676 280.97 555.334C281.311 554.97 281.87 554.788 282.644 554.788H293.377Z" fill="#E8D98C"/>
<path d="M345.849 554.788C346.624 554.788 347.171 554.97 347.49 555.334C347.832 555.676 348.003 556.269 348.003 557.112C348.003 557.955 347.832 558.559 347.49 558.923C347.171 559.265 346.624 559.436 345.849 559.436H343.73L329.751 588.079C328.27 591.109 326.823 593.49 325.41 595.222C323.997 596.954 322.402 598.219 320.625 599.016C318.87 599.836 316.728 600.292 314.199 600.383C313.402 600.406 312.786 600.201 312.353 599.768C311.92 599.358 311.704 598.617 311.704 597.546C311.704 596.065 312.308 595.291 313.516 595.222C315.703 595.108 317.435 594.744 318.711 594.128C320.01 593.513 321.195 592.454 322.266 590.95C323.359 589.469 324.692 587.144 326.265 583.977L313.755 559.436H311.601C310.827 559.436 310.268 559.265 309.927 558.923C309.608 558.559 309.448 557.955 309.448 557.112C309.448 556.269 309.608 555.676 309.927 555.334C310.268 554.97 310.827 554.788 311.601 554.788H323.701C324.476 554.788 325.023 554.97 325.342 555.334C325.683 555.676 325.854 556.269 325.854 557.112C325.854 557.955 325.683 558.559 325.342 558.923C325.023 559.265 324.476 559.436 323.701 559.436H319.326L328.965 578.645L338.159 559.436H335.117C334.342 559.436 333.784 559.265 333.442 558.923C333.123 558.559 332.964 557.955 332.964 557.112C332.964 556.269 333.123 555.676 333.442 555.334C333.784 554.97 334.342 554.788 335.117 554.788H345.849ZM385.06 554.036C387.134 554.036 388.934 554.491 390.461 555.403C391.988 556.292 393.161 557.579 393.981 559.265C394.802 560.951 395.212 562.922 395.212 565.178V581.721H398.015C398.789 581.721 399.336 581.903 399.655 582.268C399.997 582.61 400.168 583.202 400.168 584.045C400.168 584.889 399.997 585.492 399.655 585.857C399.336 586.199 398.789 586.37 398.015 586.37H386.94C386.166 586.37 385.607 586.199 385.266 585.857C384.946 585.492 384.787 584.889 384.787 584.045C384.787 583.202 384.946 582.61 385.266 582.268C385.607 581.903 386.166 581.721 386.94 581.721H390.085V565.691C390.085 563.663 389.618 562.056 388.683 560.872C387.749 559.687 386.371 559.094 384.548 559.094C382.611 559.094 380.799 559.653 379.113 560.769C377.45 561.886 376.117 563.424 375.114 565.383C374.112 567.343 373.61 569.53 373.61 571.946V581.721H376.755C377.53 581.721 378.076 581.903 378.395 582.268C378.737 582.61 378.908 583.202 378.908 584.045C378.908 584.889 378.737 585.492 378.395 585.857C378.076 586.199 377.53 586.37 376.755 586.37H365.681C364.906 586.37 364.348 586.199 364.006 585.857C363.687 585.492 363.527 584.889 363.527 584.045C363.527 583.202 363.687 582.61 364.006 582.268C364.348 581.903 364.906 581.721 365.681 581.721H368.483V559.436H364.997C364.222 559.436 363.664 559.265 363.322 558.923C363.003 558.559 362.844 557.955 362.844 557.112C362.844 556.269 363.003 555.676 363.322 555.334C363.664 554.97 364.222 554.788 364.997 554.788H371.115C371.89 554.788 372.437 554.97 372.756 555.334C373.098 555.676 373.268 556.269 373.268 557.112V561.213C374.772 558.889 376.527 557.112 378.532 555.881C380.56 554.651 382.736 554.036 385.06 554.036ZM433.978 554.036C437.282 554.036 440.097 554.708 442.421 556.052C444.768 557.374 446.568 559.22 447.821 561.589C449.074 563.936 449.792 566.648 449.974 569.724C449.974 570.499 449.804 571.046 449.462 571.365C449.143 571.684 448.596 571.843 447.821 571.843H423.075C423.235 575.238 424.237 577.813 426.083 579.568C427.951 581.3 430.583 582.166 433.978 582.166C436.075 582.166 438.148 581.903 440.199 581.379C442.25 580.833 444.05 580.115 445.599 579.226C445.987 579.021 446.34 578.918 446.659 578.918C447.457 578.918 448.106 579.522 448.607 580.73C448.812 581.208 448.915 581.641 448.915 582.029C448.915 582.94 448.414 583.647 447.411 584.148C445.656 585.037 443.583 585.754 441.19 586.301C438.798 586.848 436.394 587.122 433.978 587.122C430.538 587.122 427.598 586.461 425.16 585.139C422.722 583.818 420.865 581.915 419.589 579.431C418.313 576.947 417.675 573.997 417.675 570.579C417.675 567.32 418.37 564.438 419.76 561.931C421.15 559.425 423.075 557.488 425.536 556.121C427.997 554.731 430.811 554.036 433.978 554.036ZM433.978 558.992C431.176 558.992 428.851 559.709 427.006 561.145C425.183 562.558 423.987 564.529 423.417 567.058H444.301C443.822 564.438 442.717 562.444 440.985 561.077C439.276 559.687 436.941 558.992 433.978 558.992Z" fill="#E29C7D"/>
<path d="M238.464 641.882C238.864 641.882 239.148 641.955 239.314 642.102C239.48 642.248 239.563 642.492 239.563 642.834V645.617C239.563 645.959 239.48 646.203 239.314 646.35C239.148 646.496 238.864 646.569 238.464 646.569C238.132 646.569 237.898 646.442 237.761 646.188C237.341 645.388 236.731 644.826 235.93 644.504C235.129 644.172 234.113 644.006 232.883 644.006C231.936 644.006 231.193 644.177 230.656 644.519C230.129 644.851 229.865 645.319 229.865 645.925C229.865 646.237 229.963 646.491 230.158 646.687C230.363 646.882 230.661 647.043 231.052 647.17C231.374 647.277 231.745 647.36 232.165 647.419C232.595 647.478 233.147 647.541 233.82 647.609C234.768 647.717 235.529 647.819 236.106 647.917C236.691 648.005 237.243 648.142 237.761 648.327C238.542 648.61 239.148 649.021 239.577 649.558C240.017 650.095 240.236 650.803 240.236 651.682C240.236 652.561 240.012 653.332 239.563 653.996C239.123 654.65 238.474 655.158 237.614 655.52C236.765 655.881 235.744 656.062 234.553 656.062C233.498 656.062 232.57 655.915 231.77 655.622C230.969 655.329 230.271 654.885 229.675 654.289V655.109C229.675 655.451 229.592 655.695 229.426 655.842C229.26 655.988 228.977 656.062 228.576 656.062C228.176 656.062 227.893 655.988 227.727 655.842C227.561 655.695 227.478 655.451 227.478 655.109V651.594C227.478 651.252 227.561 651.008 227.727 650.861C227.893 650.715 228.176 650.642 228.576 650.642C228.781 650.642 228.942 650.69 229.06 650.788C229.177 650.876 229.279 651.027 229.367 651.242C229.719 652.18 230.305 652.863 231.125 653.293C231.945 653.723 233.039 653.938 234.406 653.938C235.539 653.938 236.408 653.732 237.014 653.322C237.619 652.912 237.922 652.365 237.922 651.682C237.922 651.35 237.815 651.076 237.6 650.861C237.385 650.646 237.077 650.471 236.677 650.334C236.335 650.227 235.94 650.139 235.49 650.07C235.051 649.992 234.489 649.919 233.806 649.851C232.888 649.753 232.121 649.65 231.506 649.543C230.891 649.436 230.324 649.279 229.807 649.074C229.094 648.791 228.537 648.4 228.137 647.902C227.746 647.395 227.551 646.735 227.551 645.925C227.551 645.075 227.771 644.348 228.21 643.742C228.659 643.127 229.275 642.663 230.056 642.351C230.847 642.038 231.74 641.882 232.736 641.882C233.684 641.882 234.548 642.023 235.329 642.307C236.12 642.59 236.799 642.985 237.365 643.493V642.834C237.365 642.492 237.448 642.248 237.614 642.102C237.78 641.955 238.064 641.882 238.464 641.882ZM253.638 641.882C254.976 641.882 256.182 642.185 257.256 642.79C258.33 643.396 259.17 644.24 259.776 645.324C260.391 646.398 260.699 647.614 260.699 648.972C260.699 650.329 260.391 651.55 259.776 652.634C259.17 653.708 258.33 654.548 257.256 655.153C256.182 655.759 254.976 656.062 253.638 656.062C252.3 656.062 251.094 655.759 250.02 655.153C248.946 654.548 248.101 653.708 247.486 652.634C246.88 651.55 246.577 650.329 246.577 648.972C246.577 647.614 246.88 646.398 247.486 645.324C248.101 644.24 248.946 643.396 250.02 642.79C251.094 642.185 252.3 641.882 253.638 641.882ZM253.638 644.05C252.691 644.05 251.856 644.26 251.133 644.68C250.42 645.09 249.868 645.671 249.478 646.423C249.087 647.165 248.892 648.015 248.892 648.972C248.892 649.929 249.087 650.783 249.478 651.535C249.868 652.277 250.42 652.858 251.133 653.278C251.856 653.688 252.691 653.894 253.638 653.894C254.585 653.894 255.415 653.688 256.128 653.278C256.851 652.858 257.408 652.277 257.798 651.535C258.189 650.783 258.384 649.929 258.384 648.972C258.384 648.015 258.189 647.165 257.798 646.423C257.408 645.671 256.851 645.09 256.128 644.68C255.415 644.26 254.585 644.05 253.638 644.05ZM276.151 636.447C277.459 636.447 278.758 636.696 280.047 637.194C280.516 637.37 280.75 637.692 280.75 638.161C280.75 638.269 280.736 638.396 280.707 638.542C280.57 639.099 280.326 639.377 279.974 639.377C279.867 639.377 279.75 639.353 279.623 639.304C278.382 638.825 277.225 638.586 276.151 638.586C274.178 638.586 273.192 639.646 273.192 641.765V643.376H278.26C278.592 643.376 278.827 643.454 278.963 643.61C279.11 643.757 279.183 644.011 279.183 644.372C279.183 644.733 279.11 644.992 278.963 645.148C278.827 645.295 278.592 645.368 278.26 645.368H273.192V653.747H278.26C278.592 653.747 278.827 653.825 278.963 653.981C279.11 654.128 279.183 654.382 279.183 654.743C279.183 655.104 279.11 655.363 278.963 655.52C278.827 655.666 278.592 655.739 278.26 655.739H268.094C267.762 655.739 267.523 655.666 267.376 655.52C267.24 655.363 267.171 655.104 267.171 654.743C267.171 654.382 267.24 654.128 267.376 653.981C267.523 653.825 267.762 653.747 268.094 653.747H270.995V645.368H268.094C267.762 645.368 267.523 645.295 267.376 645.148C267.24 644.992 267.171 644.733 267.171 644.372C267.171 644.011 267.24 643.757 267.376 643.61C267.523 643.454 267.762 643.376 268.094 643.376H270.995V641.574C270.995 639.963 271.444 638.708 272.342 637.81C273.25 636.901 274.52 636.447 276.151 636.447ZM290.929 638.029C291.33 638.029 291.613 638.103 291.779 638.249C291.945 638.396 292.028 638.64 292.028 638.981V643.376H298.049C298.381 643.376 298.615 643.454 298.752 643.61C298.898 643.757 298.971 644.011 298.971 644.372C298.971 644.733 298.898 644.992 298.752 645.148C298.615 645.295 298.381 645.368 298.049 645.368H292.028V650.7C292.028 651.813 292.218 652.629 292.599 653.146C292.99 653.664 293.664 653.923 294.621 653.923C295.275 653.923 295.964 653.791 296.686 653.527C297.409 653.264 298.107 652.912 298.781 652.473C298.918 652.375 299.069 652.326 299.235 652.326C299.567 652.326 299.85 652.551 300.085 653C300.212 653.254 300.275 653.474 300.275 653.659C300.275 653.972 300.114 654.226 299.792 654.421C299.03 654.899 298.18 655.295 297.243 655.607C296.305 655.91 295.431 656.062 294.621 656.062C292.961 656.062 291.745 655.632 290.973 654.772C290.212 653.903 289.831 652.609 289.831 650.891V645.368H286.857C286.525 645.368 286.286 645.295 286.139 645.148C286.003 644.992 285.934 644.733 285.934 644.372C285.934 644.011 286.003 643.757 286.139 643.61C286.286 643.454 286.525 643.376 286.857 643.376H289.831V638.981C289.831 638.64 289.914 638.396 290.08 638.249C290.246 638.103 290.529 638.029 290.929 638.029ZM321.221 642.204C321.553 642.204 321.787 642.282 321.924 642.438C322.07 642.585 322.143 642.839 322.143 643.2C322.143 643.562 322.07 643.82 321.924 643.977C321.787 644.123 321.553 644.196 321.221 644.196H320.869L317.983 655.109C317.886 655.461 317.739 655.705 317.544 655.842C317.358 655.988 317.08 656.062 316.709 656.062C316.289 656.062 315.957 655.983 315.713 655.827C315.478 655.681 315.303 655.441 315.185 655.109L312.944 648.752L310.674 655.109C310.557 655.441 310.371 655.681 310.117 655.827C309.873 655.983 309.541 656.062 309.121 656.062C308.75 656.062 308.472 655.988 308.286 655.842C308.1 655.705 307.964 655.461 307.876 655.109L305.049 644.196H304.785C304.453 644.196 304.214 644.123 304.067 643.977C303.931 643.82 303.862 643.562 303.862 643.2C303.862 642.839 303.931 642.585 304.067 642.438C304.214 642.282 304.453 642.204 304.785 642.204H309.092C309.424 642.204 309.658 642.282 309.795 642.438C309.941 642.585 310.015 642.839 310.015 643.2C310.015 643.562 309.941 643.82 309.795 643.977C309.658 644.123 309.424 644.196 309.092 644.196H307.29L309.399 652.722L311.846 645.925C311.914 645.72 312.041 645.554 312.226 645.427C312.412 645.3 312.656 645.236 312.959 645.236C313.574 645.236 313.95 645.432 314.087 645.822L316.518 652.722L318.686 644.196H317.207C316.875 644.196 316.636 644.123 316.489 643.977C316.352 643.82 316.284 643.562 316.284 643.2C316.284 642.839 316.352 642.585 316.489 642.438C316.636 642.282 316.875 642.204 317.207 642.204H321.221ZM332.85 641.882C334.686 641.882 336.063 642.292 336.981 643.112C337.899 643.933 338.358 645.148 338.358 646.76V652.59C338.358 653.361 338.68 653.747 339.324 653.747H339.837C340.169 653.747 340.403 653.825 340.54 653.981C340.687 654.128 340.76 654.382 340.76 654.743C340.76 655.104 340.687 655.363 340.54 655.52C340.403 655.666 340.169 655.739 339.837 655.739H338.9C338.265 655.739 337.718 655.583 337.259 655.271C336.81 654.948 336.517 654.479 336.38 653.864C335.579 654.567 334.71 655.109 333.773 655.49C332.845 655.871 331.858 656.062 330.814 656.062C329.827 656.062 328.953 655.896 328.191 655.563C327.44 655.222 326.849 654.729 326.419 654.084C325.989 653.439 325.775 652.673 325.775 651.784C325.775 650.241 326.326 649.104 327.43 648.371C328.533 647.629 329.959 647.258 331.707 647.258C333.26 647.258 334.744 647.507 336.16 648.005V646.76C336.16 645.812 335.892 645.119 335.355 644.68C334.827 644.23 333.973 644.006 332.791 644.006C332.059 644.006 331.297 644.108 330.506 644.313C329.715 644.519 328.963 644.802 328.25 645.163C328.084 645.251 327.933 645.295 327.796 645.295C327.474 645.295 327.205 645.061 326.99 644.592C326.883 644.357 326.829 644.162 326.829 644.006C326.829 643.664 327.01 643.4 327.371 643.215C328.191 642.785 329.07 642.458 330.008 642.233C330.955 641.999 331.902 641.882 332.85 641.882ZM331.722 649.323C330.599 649.323 329.71 649.519 329.056 649.909C328.411 650.29 328.089 650.9 328.089 651.74C328.089 652.453 328.333 653.01 328.821 653.41C329.319 653.801 330.013 653.996 330.901 653.996C332.845 653.996 334.598 653.19 336.16 651.579V649.982C335.496 649.768 334.783 649.606 334.022 649.499C333.26 649.382 332.493 649.323 331.722 649.323ZM357.062 641.882C357.824 641.882 358.536 642.077 359.2 642.468C359.591 642.702 359.786 643.005 359.786 643.376C359.786 643.552 359.742 643.757 359.655 643.991C359.45 644.548 359.166 644.826 358.805 644.826C358.658 644.826 358.522 644.787 358.395 644.709C357.916 644.445 357.404 644.313 356.857 644.313C355.978 644.313 355.094 644.621 354.205 645.236C353.317 645.842 352.584 646.652 352.008 647.668C351.442 648.684 351.158 649.763 351.158 650.905V653.747H356.095C356.427 653.747 356.661 653.825 356.798 653.981C356.945 654.128 357.018 654.382 357.018 654.743C357.018 655.104 356.945 655.363 356.798 655.52C356.661 655.666 356.427 655.739 356.095 655.739H346.661C346.329 655.739 346.09 655.666 345.944 655.52C345.807 655.363 345.739 655.104 345.739 654.743C345.739 654.382 345.807 654.128 345.944 653.981C346.09 653.825 346.329 653.747 346.661 653.747H348.961V644.196H347.101C346.769 644.196 346.53 644.123 346.383 643.977C346.246 643.82 346.178 643.562 346.178 643.2C346.178 642.839 346.246 642.585 346.383 642.438C346.53 642.282 346.769 642.204 347.101 642.204H350.089C350.421 642.204 350.656 642.282 350.792 642.438C350.939 642.585 351.012 642.839 351.012 643.2V646.159C351.481 645.3 352.047 644.548 352.711 643.903C353.375 643.259 354.083 642.761 354.835 642.409C355.587 642.058 356.329 641.882 357.062 641.882ZM372.5 641.882C373.916 641.882 375.122 642.17 376.118 642.746C377.124 643.312 377.895 644.104 378.432 645.119C378.969 646.125 379.277 647.287 379.355 648.605C379.355 648.938 379.282 649.172 379.135 649.309C378.999 649.445 378.764 649.514 378.432 649.514H367.827C367.895 650.969 368.325 652.072 369.116 652.824C369.917 653.566 371.044 653.938 372.5 653.938C373.398 653.938 374.287 653.825 375.166 653.601C376.044 653.366 376.816 653.059 377.48 652.678C377.646 652.59 377.797 652.546 377.934 652.546C378.276 652.546 378.554 652.805 378.769 653.322C378.857 653.527 378.901 653.713 378.901 653.879C378.901 654.27 378.686 654.572 378.256 654.787C377.504 655.168 376.616 655.476 375.59 655.71C374.565 655.944 373.535 656.062 372.5 656.062C371.025 656.062 369.765 655.778 368.72 655.212C367.675 654.646 366.879 653.83 366.333 652.766C365.786 651.701 365.512 650.437 365.512 648.972C365.512 647.575 365.81 646.34 366.406 645.266C367.001 644.191 367.827 643.361 368.881 642.775C369.936 642.18 371.142 641.882 372.5 641.882ZM372.5 644.006C371.298 644.006 370.302 644.313 369.511 644.929C368.73 645.534 368.217 646.379 367.973 647.463H376.923C376.718 646.34 376.245 645.485 375.502 644.899C374.77 644.304 373.769 644.006 372.5 644.006Z" fill="white"/>
<path d="M260.889 229.67C251.053 201.297 271.463 169.409 301.49 169.409C331.517 169.409 351.926 201.297 342.09 229.67C326.213 275.467 310.448 338.453 321.944 385.875C324.785 397.598 329.845 410.647 335.563 423.213C347.23 448.852 329.655 480.388 301.49 480.388C273.324 480.388 255.749 448.852 267.416 423.213C273.134 410.647 278.194 397.598 281.036 385.875C292.531 338.453 276.766 275.467 260.889 229.67Z" fill="url(#paint10_linear)"/>
<path d="M418.313 341.065C427.052 370.01 405.842 400.835 375.609 400.835C345.377 400.835 324.167 370.01 332.906 341.064C349.464 286.223 368.1 204.567 355.724 144.097C352.273 127.238 345.522 107.675 338.353 89.6564C327.67 62.803 346.712 32 375.609 32C404.507 32 423.549 62.803 412.866 89.6564C405.697 107.675 398.946 127.238 395.495 144.097C383.119 204.567 401.754 286.223 418.313 341.065Z" fill="url(#paint10_linear)"/>
<path d="M404.214 476.741C381.133 498.708 349.571 476.156 358.256 445.497C362.184 431.633 374.31 421.753 388.01 417.295C412.563 409.306 445.902 389.921 431.651 344.786C419.483 306.248 411.168 263.778 406.286 234.543C403.077 215.325 418.065 198.337 437.546 198.337C461.985 198.337 479.07 225.083 472.807 248.708C465.434 276.526 459.969 313.246 465.999 352.018C473.159 398.053 439.383 443.27 404.214 476.741Z" fill="url(#paint10_linear)"/>
<path d="M208.493 480.815C228.065 493.235 250.773 477.195 249.121 454.072C248.04 438.929 236.259 426.761 221.7 422.463C193.772 414.216 154.824 394.778 169.521 352.019C196.986 272.111 195.139 207.724 191.366 175.527C189.808 162.227 178.256 153.137 164.866 153.137C142.122 153.137 126.012 178.953 132.204 200.84C142.547 237.395 150.778 293.047 136.98 361.059C125.794 416.197 171.294 457.209 208.493 480.815Z" fill="url(#paint10_linear)"/>
<path d="M268.424 341.644C277.608 369.908 257.085 400.835 227.37 400.835C197.654 400.835 177.132 369.908 186.315 341.644C202.342 292.314 219.254 221.868 207.484 169.267C204.383 155.411 198.593 139.67 192.231 124.804C181.151 98.9194 199.216 68.1603 227.37 68.1603C255.523 68.1603 273.588 98.9194 262.509 124.804C256.146 139.67 250.356 155.411 247.256 169.267C235.485 221.868 252.397 292.314 268.424 341.644Z" fill="url(#paint10_linear)"/>
</g>
<defs>
<linearGradient id="paint10_linear" x1="81.3639" y1="32" x2="81.3639" y2="485.522" gradientUnits="userSpaceOnUse">
<stop stop-color="#E8D98C"/>
<stop offset="1" stop-color="#CA7D5C"/>
</linearGradient>
<clipPath id="clip0">
<rect width="604" height="690" fill="white"/>
</clipPath>
</defs>
</svg>
