<svg width="252" height="77" viewBox="0 0 252 77" fill="none" xmlns="http://www.w3.org/2000/svg">
<path d="M22.0751 33.5609C20.405 28.7436 23.8702 23.3297 28.9683 23.3297C34.0663 23.3297 37.5315 28.7436 35.8615 33.5609C33.1658 41.3364 30.4892 52.0303 32.441 60.0818C32.9235 62.0722 33.7825 64.2876 34.7534 66.4212C36.7342 70.7741 33.7502 76.1284 28.9683 76.1284C24.1863 76.1284 21.2023 70.7741 23.1831 66.4212C24.154 64.2876 25.013 62.0722 25.4955 60.0818C27.4473 52.0303 24.7707 41.3364 22.0751 33.5609Z" fill="url(#paint0_linear)"/>
<path d="M48.8028 52.4737C50.2866 57.3881 46.6855 62.6218 41.5525 62.6218C36.4195 62.6218 32.8184 57.3881 34.3022 52.4737C37.1136 43.1626 40.2775 29.2988 38.1763 19.0321C37.5904 16.1697 36.4441 12.8483 35.2271 9.78904C33.4132 5.2298 36.6462 -4.28973e-07 41.5525 0C46.4588 4.28973e-07 49.6918 5.2298 47.878 9.78904C46.6609 12.8483 45.5146 16.1697 44.9288 19.0321C42.8275 29.2988 45.9915 43.1626 48.8028 52.4737Z" fill="url(#paint0_linear)"/>
<path d="M46.4091 75.5091C42.4903 79.2388 37.1316 75.4098 38.6063 70.2045C39.2731 67.8507 41.3318 66.1732 43.658 65.4163C47.8266 64.0599 53.487 60.7686 51.0674 53.1056C49.0014 46.5625 47.5897 39.3519 46.7608 34.3882C46.216 31.1254 48.7607 28.2411 52.0683 28.2411C56.2176 28.2411 59.1183 32.782 58.055 36.7933C56.8031 41.5163 55.8753 47.7506 56.8991 54.3335C58.1148 62.1493 52.3801 69.8264 46.4091 75.5091Z" fill="url(#paint0_linear)"/>
<path d="M13.1792 76.2009C16.5021 78.3097 20.3574 75.5863 20.077 71.6604C19.8934 69.0894 17.8932 67.0235 15.4215 66.2937C10.6797 64.8936 4.06703 61.5933 6.56228 54.3335C11.2253 40.7667 10.9118 29.8348 10.2713 24.3684C10.0067 22.1102 8.04535 20.5669 5.77202 20.5669C1.91047 20.5669 -0.824731 24.95 0.226635 28.6661C1.98256 34.8725 3.3801 44.3213 1.03749 55.8684C-0.861705 65.2298 6.86343 72.193 13.1792 76.2009Z" fill="url(#paint0_linear)"/>
<path d="M23.3544 52.572C24.9135 57.3708 21.4291 62.6218 16.384 62.6218C11.3389 62.6218 7.85452 57.3708 9.41364 52.572C12.1348 44.1968 15.0061 32.2363 13.0078 23.3056C12.4813 20.9529 11.4983 18.2805 10.418 15.7566C8.53695 11.3617 11.604 6.13939 16.384 6.13939C21.164 6.13939 24.2311 11.3617 22.35 15.7566C21.2697 18.2805 20.2867 20.9529 19.7603 23.3056C17.7619 32.2363 20.6333 44.1968 23.3544 52.572Z" fill="url(#paint0_linear)"/>
<path d="M87.8555 24.375C88.2982 24.375 88.6107 24.4792 88.793 24.6875C88.9883 24.8828 89.0859 25.2214 89.0859 25.7031V47.3438H90.6875C91.1302 47.3438 91.4427 47.4479 91.625 47.6562C91.8203 47.8516 91.918 48.1901 91.918 48.6719C91.918 49.1536 91.8203 49.4987 91.625 49.707C91.4427 49.9023 91.1302 50 90.6875 50H87.582C87.1393 50 86.8203 49.9023 86.625 49.707C86.4427 49.4987 86.3516 49.1536 86.3516 48.6719V47.1094C85.5312 48.1771 84.5807 48.9974 83.5 49.5703C82.4193 50.1432 81.2409 50.4297 79.9648 50.4297C78.3503 50.4297 76.9049 50.0521 75.6289 49.2969C74.3529 48.5286 73.3503 47.4349 72.6211 46.0156C71.8919 44.5833 71.5273 42.9036 71.5273 40.9766C71.5273 39.0495 71.8919 37.3763 72.6211 35.957C73.3503 34.5247 74.3529 33.431 75.6289 32.6758C76.9049 31.9076 78.3503 31.5234 79.9648 31.5234C82.4128 31.5234 84.4766 32.5977 86.1562 34.7461V27.0312H82.9922C82.5495 27.0312 82.2305 26.9336 82.0352 26.7383C81.8529 26.5299 81.7617 26.1849 81.7617 25.7031C81.7617 25.2214 81.8529 24.8828 82.0352 24.6875C82.2305 24.4792 82.5495 24.375 82.9922 24.375H87.8555ZM80.1602 34.4141C79.0013 34.4141 78.0052 34.694 77.1719 35.2539C76.3385 35.8008 75.7005 36.569 75.2578 37.5586C74.8281 38.5482 74.6133 39.6875 74.6133 40.9766C74.6133 42.2656 74.8281 43.4049 75.2578 44.3945C75.7005 45.3841 76.3385 46.1589 77.1719 46.7188C78.0052 47.2656 79.0013 47.5391 80.1602 47.5391C81.319 47.5391 82.3477 47.2786 83.2461 46.7578C84.1576 46.237 84.8672 45.4818 85.375 44.4922C85.8958 43.5026 86.1562 42.3307 86.1562 40.9766C86.1562 39.6224 85.8958 38.4505 85.375 37.4609C84.8672 36.4714 84.1576 35.7161 83.2461 35.1953C82.3477 34.6745 81.319 34.4141 80.1602 34.4141ZM111.199 31.5234C113.087 31.5234 114.695 31.9076 116.023 32.6758C117.365 33.431 118.393 34.4857 119.109 35.8398C119.826 37.181 120.236 38.7305 120.34 40.4883C120.34 40.931 120.242 41.2435 120.047 41.4258C119.865 41.6081 119.552 41.6992 119.109 41.6992H104.969C105.06 43.6393 105.633 45.1107 106.688 46.1133C107.755 47.1029 109.259 47.5977 111.199 47.5977C112.397 47.5977 113.582 47.4479 114.754 47.1484C115.926 46.8359 116.954 46.4258 117.84 45.918C118.061 45.8008 118.263 45.7422 118.445 45.7422C118.901 45.7422 119.272 46.0872 119.559 46.7773C119.676 47.0508 119.734 47.2982 119.734 47.5195C119.734 48.0404 119.448 48.444 118.875 48.7305C117.872 49.2383 116.688 49.6484 115.32 49.9609C113.953 50.2734 112.579 50.4297 111.199 50.4297C109.233 50.4297 107.553 50.0521 106.16 49.2969C104.767 48.5417 103.706 47.4544 102.977 46.0352C102.247 44.6159 101.883 42.9297 101.883 40.9766C101.883 39.1146 102.28 37.4674 103.074 36.0352C103.868 34.6029 104.969 33.4961 106.375 32.7148C107.781 31.9206 109.389 31.5234 111.199 31.5234ZM111.199 34.3555C109.598 34.3555 108.27 34.7656 107.215 35.5859C106.173 36.3932 105.49 37.5195 105.164 38.9648H117.098C116.824 37.4674 116.193 36.3281 115.203 35.5469C114.227 34.7526 112.892 34.3555 111.199 34.3555ZM150.793 31.9531C151.236 31.9531 151.548 32.0573 151.73 32.2656C151.926 32.4609 152.023 32.7995 152.023 33.2812C152.023 33.763 151.926 34.1081 151.73 34.3164C151.548 34.5117 151.236 34.6094 150.793 34.6094H149.562L143.254 49.1602C143.072 49.6029 142.798 49.9219 142.434 50.1172C142.082 50.3255 141.587 50.4297 140.949 50.4297C140.324 50.4297 139.836 50.3255 139.484 50.1172C139.146 49.9219 138.879 49.6029 138.684 49.1602L132.434 34.6094H131.223C130.78 34.6094 130.461 34.5117 130.266 34.3164C130.083 34.1081 129.992 33.763 129.992 33.2812C129.992 32.7995 130.083 32.4609 130.266 32.2656C130.461 32.0573 130.78 31.9531 131.223 31.9531H138.137C138.579 31.9531 138.892 32.0573 139.074 32.2656C139.27 32.4609 139.367 32.7995 139.367 33.2812C139.367 33.763 139.27 34.1081 139.074 34.3164C138.892 34.5117 138.579 34.6094 138.137 34.6094H135.637L140.969 47.3438L146.359 34.6094H144.66C144.217 34.6094 143.898 34.5117 143.703 34.3164C143.521 34.1081 143.43 33.763 143.43 33.2812C143.43 32.7995 143.521 32.4609 143.703 32.2656C143.898 32.0573 144.217 31.9531 144.66 31.9531H150.793ZM180.777 31.9531C181.22 31.9531 181.533 32.0573 181.715 32.2656C181.91 32.4609 182.008 32.7995 182.008 33.2812C182.008 33.763 181.91 34.1081 181.715 34.3164C181.533 34.5117 181.22 34.6094 180.777 34.6094H179.566L171.578 50.9766C170.732 52.7083 169.905 54.069 169.098 55.0586C168.29 56.0482 167.379 56.7708 166.363 57.2266C165.361 57.6953 164.137 57.9557 162.691 58.0078C162.236 58.0208 161.884 57.9036 161.637 57.6562C161.389 57.4219 161.266 56.9987 161.266 56.3867C161.266 55.5404 161.611 55.0977 162.301 55.0586C163.551 54.9935 164.54 54.7852 165.27 54.4336C166.012 54.082 166.689 53.4766 167.301 52.6172C167.926 51.7708 168.688 50.4427 169.586 48.6328L162.438 34.6094H161.207C160.764 34.6094 160.445 34.5117 160.25 34.3164C160.068 34.1081 159.977 33.763 159.977 33.2812C159.977 32.7995 160.068 32.4609 160.25 32.2656C160.445 32.0573 160.764 31.9531 161.207 31.9531H168.121C168.564 31.9531 168.876 32.0573 169.059 32.2656C169.254 32.4609 169.352 32.7995 169.352 33.2812C169.352 33.763 169.254 34.1081 169.059 34.3164C168.876 34.5117 168.564 34.6094 168.121 34.6094H165.621L171.129 45.5859L176.383 34.6094H174.645C174.202 34.6094 173.883 34.5117 173.688 34.3164C173.505 34.1081 173.414 33.763 173.414 33.2812C173.414 32.7995 173.505 32.4609 173.688 32.2656C173.883 32.0573 174.202 31.9531 174.645 31.9531H180.777ZM203.184 31.5234C204.368 31.5234 205.397 31.7839 206.27 32.3047C207.142 32.8125 207.812 33.5482 208.281 34.5117C208.75 35.4753 208.984 36.6016 208.984 37.8906V47.3438H210.586C211.029 47.3438 211.341 47.4479 211.523 47.6562C211.719 47.8516 211.816 48.1901 211.816 48.6719C211.816 49.1536 211.719 49.4987 211.523 49.707C211.341 49.9023 211.029 50 210.586 50H204.258C203.815 50 203.496 49.9023 203.301 49.707C203.118 49.4987 203.027 49.1536 203.027 48.6719C203.027 48.1901 203.118 47.8516 203.301 47.6562C203.496 47.4479 203.815 47.3438 204.258 47.3438H206.055V38.1836C206.055 37.0247 205.788 36.1068 205.254 35.4297C204.72 34.7526 203.932 34.4141 202.891 34.4141C201.784 34.4141 200.749 34.7331 199.785 35.3711C198.835 36.0091 198.073 36.888 197.5 38.0078C196.927 39.1276 196.641 40.3776 196.641 41.7578V47.3438H198.438C198.88 47.3438 199.193 47.4479 199.375 47.6562C199.57 47.8516 199.668 48.1901 199.668 48.6719C199.668 49.1536 199.57 49.4987 199.375 49.707C199.193 49.9023 198.88 50 198.438 50H192.109C191.667 50 191.348 49.9023 191.152 49.707C190.97 49.4987 190.879 49.1536 190.879 48.6719C190.879 48.1901 190.97 47.8516 191.152 47.6562C191.348 47.4479 191.667 47.3438 192.109 47.3438H193.711V34.6094H191.719C191.276 34.6094 190.957 34.5117 190.762 34.3164C190.579 34.1081 190.488 33.763 190.488 33.2812C190.488 32.7995 190.579 32.4609 190.762 32.2656C190.957 32.0573 191.276 31.9531 191.719 31.9531H195.215C195.658 31.9531 195.97 32.0573 196.152 32.2656C196.348 32.4609 196.445 32.7995 196.445 33.2812V35.625C197.305 34.2969 198.307 33.2812 199.453 32.5781C200.612 31.875 201.855 31.5234 203.184 31.5234ZM231.137 31.5234C233.025 31.5234 234.633 31.9076 235.961 32.6758C237.302 33.431 238.331 34.4857 239.047 35.8398C239.763 37.181 240.173 38.7305 240.277 40.4883C240.277 40.931 240.18 41.2435 239.984 41.4258C239.802 41.6081 239.49 41.6992 239.047 41.6992H224.906C224.997 43.6393 225.57 45.1107 226.625 46.1133C227.693 47.1029 229.197 47.5977 231.137 47.5977C232.335 47.5977 233.52 47.4479 234.691 47.1484C235.863 46.8359 236.892 46.4258 237.777 45.918C237.999 45.8008 238.201 45.7422 238.383 45.7422C238.839 45.7422 239.21 46.0872 239.496 46.7773C239.613 47.0508 239.672 47.2982 239.672 47.5195C239.672 48.0404 239.385 48.444 238.812 48.7305C237.81 49.2383 236.625 49.6484 235.258 49.9609C233.891 50.2734 232.517 50.4297 231.137 50.4297C229.171 50.4297 227.491 50.0521 226.098 49.2969C224.704 48.5417 223.643 47.4544 222.914 46.0352C222.185 44.6159 221.82 42.9297 221.82 40.9766C221.82 39.1146 222.217 37.4674 223.012 36.0352C223.806 34.6029 224.906 33.4961 226.312 32.7148C227.719 31.9206 229.327 31.5234 231.137 31.5234ZM231.137 34.3555C229.535 34.3555 228.207 34.7656 227.152 35.5859C226.111 36.3932 225.427 37.5195 225.102 38.9648H237.035C236.762 37.4674 236.13 36.3281 235.141 35.5469C234.164 34.7526 232.829 34.3555 231.137 34.3555Z" fill="white"/>
<defs>
<linearGradient id="paint0_linear" x1="-8.40519" y1="8.88031e-09" x2="-8.40519" y2="77" gradientUnits="userSpaceOnUse">
<stop stop-color="#E8D98C"/>
<stop offset="1" stop-color="#CA7D5C"/>
</linearGradient>
</defs>
</svg>
