<svg width="252" height="77" viewBox="0 0 252 77" fill="none" xmlns="http://www.w3.org/2000/svg">
<path d="M84.0033 30C86.16 30 88.0558 30.4959 89.6905 31.4877C91.3252 32.4658 92.589 33.8847 93.4819 35.7443C94.3885 37.5902 94.8418 39.7668 94.8418 42.2739C94.8418 44.781 94.3885 46.9575 93.4819 48.8034C92.589 50.6493 91.3252 52.0682 89.6905 53.06C88.0558 54.0381 86.16 54.5271 84.0033 54.5271H74.2981C73.8311 54.5271 73.4945 54.4238 73.2885 54.2172C73.0962 53.9967 73 53.6317 73 53.122C73 52.6123 73.0962 52.2542 73.2885 52.0475C73.4945 51.8271 73.8311 51.7169 74.2981 51.7169H76.606V32.8102H74.2981C73.8311 32.8102 73.4945 32.7069 73.2885 32.5002C73.0962 32.2798 73 31.9148 73 31.4051C73 30.8954 73.0962 30.5372 73.2885 30.3306C73.4945 30.1102 73.8311 30 74.2981 30H84.0033ZM79.6968 51.7169H83.5294C85.1641 51.7169 86.5859 51.3588 87.7948 50.6424C89.0036 49.9123 89.9377 48.8447 90.5971 47.4397C91.2565 46.0208 91.5862 44.2989 91.5862 42.2739C91.5862 40.2489 91.2565 38.5339 90.5971 37.1288C89.9377 35.7099 89.0036 34.6354 87.7948 33.9053C86.5859 33.1752 85.1641 32.8102 83.5294 32.8102H79.6968V51.7169Z" fill="white"/>
<path d="M115.822 34.9798C117.814 34.9798 119.511 35.3862 120.912 36.1989C122.327 36.9979 123.412 38.1137 124.168 39.5464C124.923 40.9652 125.356 42.6045 125.466 44.4642C125.466 44.9325 125.363 45.2631 125.157 45.456C124.964 45.6489 124.635 45.7453 124.168 45.7453H109.249C109.345 47.7978 109.95 49.3544 111.062 50.4151C112.189 51.4621 113.776 51.9855 115.822 51.9855C117.086 51.9855 118.336 51.8271 119.573 51.5103C120.809 51.1797 121.894 50.7458 122.828 50.2085C123.062 50.0845 123.275 50.0225 123.467 50.0225C123.948 50.0225 124.339 50.3876 124.642 51.1177C124.765 51.407 124.827 51.6687 124.827 51.9029C124.827 52.4539 124.525 52.8809 123.92 53.184C122.863 53.7212 121.613 54.1552 120.17 54.4858C118.728 54.8164 117.278 54.9817 115.822 54.9817C113.748 54.9817 111.976 54.5822 110.506 53.7832C109.036 52.9843 107.917 51.834 107.147 50.3325C106.378 48.831 105.994 47.0471 105.994 44.9807C105.994 43.0109 106.413 41.2683 107.25 39.753C108.088 38.2377 109.249 37.0668 110.733 36.2403C112.216 35.4 113.913 34.9798 115.822 34.9798ZM115.822 37.976C114.133 37.976 112.732 38.4099 111.619 39.2777C110.52 40.1318 109.799 41.3234 109.455 42.8524H122.045C121.757 41.2683 121.09 40.0629 120.046 39.2364C119.016 38.3961 117.608 37.976 115.822 37.976Z" fill="white"/>
<path d="M157.594 35.4344C158.061 35.4344 158.391 35.5446 158.583 35.765C158.789 35.9716 158.892 36.3298 158.892 36.8395C158.892 37.3492 158.789 37.7142 158.583 37.9346C158.391 38.1413 158.061 38.2446 157.594 38.2446H156.296L149.64 53.6386C149.448 54.1069 149.159 54.4444 148.775 54.6511C148.404 54.8715 147.882 54.9817 147.209 54.9817C146.549 54.9817 146.034 54.8715 145.663 54.6511C145.306 54.4444 145.024 54.1069 144.818 53.6386L138.225 38.2446H136.947C136.48 38.2446 136.143 38.1413 135.937 37.9346C135.745 37.7142 135.649 37.3492 135.649 36.8395C135.649 36.3298 135.745 35.9716 135.937 35.765C136.143 35.5446 136.48 35.4344 136.947 35.4344H144.241C144.709 35.4344 145.038 35.5446 145.231 35.765C145.437 35.9716 145.54 36.3298 145.54 36.8395C145.54 37.3492 145.437 37.7142 145.231 37.9346C145.038 38.1413 144.709 38.2446 144.241 38.2446H141.604L147.229 51.7169L152.916 38.2446H151.124C150.657 38.2446 150.32 38.1413 150.114 37.9346C149.922 37.7142 149.826 37.3492 149.826 36.8395C149.826 36.3298 149.922 35.9716 150.114 35.765C150.32 35.5446 150.657 35.4344 151.124 35.4344H157.594Z" fill="white"/>
<path d="M189.227 35.4344C189.694 35.4344 190.024 35.5446 190.216 35.765C190.423 35.9716 190.526 36.3298 190.526 36.8395C190.526 37.3492 190.423 37.7142 190.216 37.9346C190.024 38.1413 189.694 38.2446 189.227 38.2446H187.95L179.522 55.5603C178.629 57.3924 177.757 58.8319 176.905 59.8788C176.054 60.9258 175.092 61.6903 174.021 62.1724C172.963 62.6684 171.672 62.9439 170.147 62.999C169.666 63.0127 169.295 62.8888 169.034 62.627C168.773 62.3791 168.642 61.9314 168.642 61.2839C168.642 60.3885 169.007 59.9202 169.735 59.8788C171.053 59.81 172.097 59.5896 172.867 59.2176C173.65 58.8457 174.364 58.2051 175.01 57.296C175.669 56.4006 176.473 54.9955 177.42 53.0807L169.879 38.2446H168.581C168.114 38.2446 167.777 38.1413 167.571 37.9346C167.379 37.7142 167.283 37.3492 167.283 36.8395C167.283 36.3298 167.379 35.9716 167.571 35.765C167.777 35.5446 168.114 35.4344 168.581 35.4344H175.875C176.342 35.4344 176.672 35.5446 176.864 35.765C177.07 35.9716 177.173 36.3298 177.173 36.8395C177.173 37.3492 177.07 37.7142 176.864 37.9346C176.672 38.1413 176.342 38.2446 175.875 38.2446H173.238L179.048 49.8572L184.591 38.2446H182.757C182.29 38.2446 181.954 38.1413 181.748 37.9346C181.555 37.7142 181.459 37.3492 181.459 36.8395C181.459 36.3298 181.555 35.9716 181.748 35.765C181.954 35.5446 182.29 35.4344 182.757 35.4344H189.227Z" fill="white"/>
<path d="M212.866 34.9798C214.116 34.9798 215.201 35.2553 216.122 35.8063C217.042 36.3436 217.75 37.1219 218.244 38.1413C218.739 39.1606 218.986 40.3522 218.986 41.716V51.7169H220.676C221.143 51.7169 221.472 51.8271 221.665 52.0475C221.871 52.2542 221.974 52.6123 221.974 53.122C221.974 53.6317 221.871 53.9967 221.665 54.2172C221.472 54.4238 221.143 54.5271 220.676 54.5271H213.999C213.532 54.5271 213.196 54.4238 212.99 54.2172C212.797 53.9967 212.701 53.6317 212.701 53.122C212.701 52.6123 212.797 52.2542 212.99 52.0475C213.196 51.8271 213.532 51.7169 213.999 51.7169H215.895V42.0259C215.895 40.7999 215.613 39.8287 215.05 39.1124C214.487 38.3961 213.656 38.0379 212.557 38.0379C211.389 38.0379 210.297 38.3754 209.281 39.0504C208.278 39.7254 207.474 40.6553 206.87 41.84C206.265 43.0246 205.963 44.3471 205.963 45.8073V51.7169H207.859C208.326 51.7169 208.656 51.8271 208.848 52.0475C209.054 52.2542 209.157 52.6123 209.157 53.122C209.157 53.6317 209.054 53.9967 208.848 54.2172C208.656 54.4238 208.326 54.5271 207.859 54.5271H201.183C200.716 54.5271 200.379 54.4238 200.173 54.2172C199.981 53.9967 199.885 53.6317 199.885 53.122C199.885 52.6123 199.981 52.2542 200.173 52.0475C200.379 51.8271 200.716 51.7169 201.183 51.7169H202.872V38.2446H200.771C200.304 38.2446 199.967 38.1413 199.761 37.9346C199.569 37.7142 199.472 37.3492 199.472 36.8395C199.472 36.3298 199.569 35.9716 199.761 35.765C199.967 35.5446 200.304 35.4344 200.771 35.4344H204.459C204.926 35.4344 205.256 35.5446 205.448 35.765C205.654 35.9716 205.757 36.3298 205.757 36.8395V39.3191C206.664 37.914 207.722 36.8395 208.93 36.0956C210.153 35.3517 211.465 34.9798 212.866 34.9798Z" fill="white"/>
<path d="M242.357 34.9798C244.348 34.9798 246.045 35.3862 247.446 36.1989C248.861 36.9979 249.946 38.1137 250.702 39.5464C251.457 40.9652 251.89 42.6045 252 44.4642C252 44.9325 251.897 45.2631 251.691 45.456C251.499 45.6489 251.169 45.7453 250.702 45.7453H235.783C235.88 47.7978 236.484 49.3544 237.597 50.4151C238.723 51.4621 240.31 51.9855 242.357 51.9855C243.62 51.9855 244.87 51.8271 246.107 51.5103C247.343 51.1797 248.428 50.7458 249.362 50.2085C249.596 50.0845 249.809 50.0225 250.001 50.0225C250.482 50.0225 250.874 50.3876 251.176 51.1177C251.299 51.407 251.361 51.6687 251.361 51.9029C251.361 52.4539 251.059 52.8809 250.455 53.184C249.397 53.7212 248.147 54.1552 246.704 54.4858C245.262 54.8164 243.813 54.9817 242.357 54.9817C240.282 54.9817 238.51 54.5822 237.04 53.7832C235.571 52.9843 234.451 51.834 233.682 50.3325C232.912 48.831 232.528 47.0471 232.528 44.9807C232.528 43.0109 232.947 41.2683 233.785 39.753C234.623 38.2377 235.783 37.0668 237.267 36.2403C238.751 35.4 240.447 34.9798 242.357 34.9798ZM242.357 37.976C240.667 37.976 239.266 38.4099 238.153 39.2777C237.054 40.1318 236.333 41.3234 235.99 42.8524H248.579C248.291 41.2683 247.625 40.0629 246.581 39.2364C245.55 38.3961 244.142 37.976 242.357 37.976Z" fill="white"/>
<path d="M22.0751 33.5609C20.405 28.7436 23.8702 23.3297 28.9683 23.3297C34.0663 23.3297 37.5315 28.7436 35.8615 33.5609C33.1658 41.3364 30.4892 52.0303 32.441 60.0818C32.9235 62.0722 33.7825 64.2876 34.7534 66.4211C36.7342 70.7741 33.7502 76.1284 28.9683 76.1284C24.1863 76.1284 21.2023 70.7741 23.1831 66.4211C24.154 64.2876 25.013 62.0722 25.4955 60.0818C27.4473 52.0303 24.7707 41.3364 22.0751 33.5609Z" fill="url(#paint0_linear)"/>
<path d="M48.8028 52.4737C50.2866 57.3881 46.6855 62.6218 41.5525 62.6218C36.4195 62.6218 32.8184 57.3881 34.3022 52.4737C37.1136 43.1626 40.2775 29.2988 38.1763 19.0321C37.5904 16.1697 36.4441 12.8483 35.2271 9.78904C33.4132 5.2298 36.6462 -4.28973e-07 41.5525 0C46.4588 4.28973e-07 49.6918 5.2298 47.878 9.78904C46.6609 12.8483 45.5146 16.1697 44.9288 19.0321C42.8275 29.2988 45.9915 43.1626 48.8028 52.4737Z" fill="url(#paint0_linear)"/>
<path d="M46.4091 75.5091C42.4903 79.2388 37.1316 75.4098 38.6063 70.2044C39.2731 67.8507 41.3318 66.1732 43.658 65.4163C47.8266 64.0599 53.487 60.7686 51.0674 53.1056C49.0014 46.5625 47.5897 39.3519 46.7608 34.3882C46.216 31.1254 48.7607 28.2411 52.0683 28.2411C56.2176 28.2411 59.1183 32.782 58.055 36.7933C56.8031 41.5163 55.8753 47.7506 56.8991 54.3335C58.1148 62.1493 52.3801 69.8264 46.4091 75.5091Z" fill="url(#paint0_linear)"/>
<path d="M13.1792 76.2009C16.5021 78.3097 20.3574 75.5863 20.077 71.6604C19.8934 69.0894 17.8932 67.0235 15.4215 66.2937C10.6797 64.8936 4.06703 61.5933 6.56228 54.3335C11.2253 40.7667 10.9118 29.8348 10.2713 24.3684C10.0067 22.1102 8.04535 20.5669 5.77202 20.5669C1.91047 20.5669 -0.824731 24.95 0.226635 28.6661C1.98256 34.8725 3.3801 44.3213 1.03749 55.8684C-0.861705 65.2298 6.86343 72.193 13.1792 76.2009Z" fill="url(#paint0_linear)"/>
<path d="M23.3544 52.572C24.9135 57.3708 21.4292 62.6218 16.384 62.6218C11.3389 62.6218 7.85452 57.3708 9.41364 52.572C12.1348 44.1968 15.0061 32.2363 13.0078 23.3056C12.4813 20.9529 11.4983 18.2805 10.418 15.7566C8.53695 11.3617 11.604 6.13939 16.384 6.13939C21.164 6.13939 24.2311 11.3617 22.35 15.7566C21.2697 18.2805 20.2867 20.9529 19.7603 23.3056C17.7619 32.2363 20.6333 44.1968 23.3544 52.572Z" fill="url(#paint0_linear)"/>
<defs>
<linearGradient id="paint0_linear" x1="0" y1="0" x2="0" y2="77" gradientUnits="userSpaceOnUse">
<stop stop-color="#E8D98C"/>
<stop offset="1" stop-color="#CA7D5C"/>
</linearGradient>
</defs>
</svg>
