<svg width="604" height="690" viewBox="0 0 604 690" fill="none" xmlns="http://www.w3.org/2000/svg">
<path fill-rule="evenodd" clip-rule="evenodd" d="M97.6552 0.748547C65.6507 -4.28207 35.0415 16.5327 29.6241 48.474C17.7723 118.354 0 237.761 0 325.455C0 421.4 21.2741 555.308 32.7926 620.779C36.9708 644.527 55.512 662.875 79.3043 666.795C133.043 675.649 230.881 689.955 302 689.955C373.119 689.955 470.957 675.649 524.696 666.795C548.488 662.875 567.029 644.527 571.207 620.779C582.726 555.308 604 421.4 604 325.455C604 237.761 586.228 118.354 574.376 48.4741C568.958 16.5328 538.349 -4.28207 506.345 0.748543C450.658 9.50163 365.634 20.9552 302 20.9552C238.366 20.9552 153.342 9.50164 97.6552 0.748547ZM238.205 581.318C238.039 581.171 237.756 581.098 237.355 581.098C236.955 581.098 236.672 581.171 236.506 581.318C236.34 581.464 236.257 581.708 236.257 582.05V582.709C235.69 582.201 235.012 581.806 234.221 581.523C233.439 581.239 232.575 581.098 231.628 581.098C230.632 581.098 229.738 581.254 228.947 581.567C228.166 581.879 227.551 582.343 227.101 582.958C226.662 583.564 226.442 584.291 226.442 585.141C226.442 585.951 226.637 586.61 227.028 587.118C227.429 587.616 227.985 588.007 228.698 588.29C229.216 588.495 229.782 588.651 230.397 588.759C231.012 588.866 231.779 588.969 232.697 589.067C233.381 589.135 233.942 589.208 234.382 589.286C234.831 589.355 235.226 589.443 235.568 589.55C235.969 589.687 236.276 589.862 236.491 590.077C236.706 590.292 236.813 590.566 236.813 590.898C236.813 591.581 236.511 592.128 235.905 592.538C235.3 592.948 234.43 593.153 233.298 593.153C231.93 593.153 230.837 592.939 230.016 592.509C229.196 592.079 228.61 591.396 228.259 590.458C228.171 590.243 228.068 590.092 227.951 590.004C227.834 589.906 227.673 589.858 227.468 589.858C227.067 589.858 226.784 589.931 226.618 590.077C226.452 590.224 226.369 590.468 226.369 590.81V594.325C226.369 594.667 226.452 594.911 226.618 595.058C226.784 595.204 227.067 595.277 227.468 595.277C227.868 595.277 228.151 595.204 228.317 595.058C228.483 594.911 228.566 594.667 228.566 594.325V593.505C229.162 594.101 229.86 594.545 230.661 594.838C231.462 595.131 232.389 595.277 233.444 595.277C234.636 595.277 235.656 595.097 236.506 594.735C237.365 594.374 238.014 593.866 238.454 593.212C238.903 592.548 239.128 591.776 239.128 590.898C239.128 590.019 238.908 589.311 238.469 588.774C238.039 588.236 237.433 587.826 236.652 587.543C236.135 587.358 235.583 587.221 234.997 587.133C234.421 587.035 233.659 586.933 232.712 586.825C232.038 586.757 231.486 586.693 231.056 586.635C230.637 586.576 230.265 586.493 229.943 586.386C229.553 586.259 229.255 586.098 229.05 585.902C228.854 585.707 228.757 585.453 228.757 585.141C228.757 584.535 229.02 584.067 229.548 583.734C230.085 583.393 230.827 583.222 231.774 583.222C233.005 583.222 234.02 583.388 234.821 583.72C235.622 584.042 236.232 584.604 236.652 585.404C236.789 585.658 237.023 585.785 237.355 585.785C237.756 585.785 238.039 585.712 238.205 585.566C238.371 585.419 238.454 585.175 238.454 584.833V582.05C238.454 581.708 238.371 581.464 238.205 581.318ZM256.147 582.006C255.073 581.401 253.867 581.098 252.529 581.098C251.191 581.098 249.985 581.401 248.911 582.006C247.837 582.611 246.992 583.456 246.377 584.54C245.771 585.614 245.469 586.83 245.469 588.188C245.469 589.545 245.771 590.766 246.377 591.85C246.992 592.924 247.837 593.764 248.911 594.369C249.985 594.975 251.191 595.277 252.529 595.277C253.867 595.277 255.073 594.975 256.147 594.369C257.222 593.764 258.062 592.924 258.667 591.85C259.282 590.766 259.59 589.545 259.59 588.188C259.59 586.83 259.282 585.614 258.667 584.54C258.062 583.456 257.222 582.611 256.147 582.006ZM250.024 583.896C250.747 583.476 251.582 583.266 252.529 583.266C253.477 583.266 254.307 583.476 255.02 583.896C255.742 584.306 256.299 584.887 256.689 585.639C257.08 586.381 257.275 587.231 257.275 588.188C257.275 589.145 257.08 589.999 256.689 590.751C256.299 591.493 255.742 592.074 255.02 592.494C254.307 592.904 253.477 593.109 252.529 593.109C251.582 593.109 250.747 592.904 250.024 592.494C249.312 592.074 248.76 591.493 248.369 590.751C247.979 589.999 247.783 589.145 247.783 588.188C247.783 587.231 247.979 586.381 248.369 585.639C248.76 584.887 249.312 584.306 250.024 583.896ZM278.939 576.41C277.65 575.912 276.351 575.663 275.042 575.663C273.411 575.663 272.142 576.117 271.234 577.026C270.335 577.924 269.886 579.179 269.886 580.79V582.592H266.986C266.654 582.592 266.414 582.67 266.268 582.826C266.131 582.973 266.063 583.227 266.063 583.588C266.063 583.949 266.131 584.208 266.268 584.364C266.414 584.511 266.654 584.584 266.986 584.584H269.886V592.963H266.986C266.654 592.963 266.414 593.041 266.268 593.197C266.131 593.344 266.063 593.598 266.063 593.959C266.063 594.32 266.131 594.579 266.268 594.735C266.414 594.882 266.654 594.955 266.986 594.955H277.152C277.484 594.955 277.718 594.882 277.855 594.735C278.001 594.579 278.074 594.32 278.074 593.959C278.074 593.598 278.001 593.344 277.855 593.197C277.718 593.041 277.484 592.963 277.152 592.963H272.083V584.584H277.152C277.484 584.584 277.718 584.511 277.855 584.364C278.001 584.208 278.074 583.949 278.074 583.588C278.074 583.227 278.001 582.973 277.855 582.826C277.718 582.67 277.484 582.592 277.152 582.592H272.083V580.981C272.083 578.861 273.07 577.802 275.042 577.802C276.116 577.802 277.274 578.041 278.514 578.52C278.641 578.568 278.758 578.593 278.865 578.593C279.217 578.593 279.461 578.315 279.598 577.758C279.627 577.611 279.642 577.484 279.642 577.377C279.642 576.908 279.407 576.586 278.939 576.41ZM290.67 577.465C290.504 577.318 290.221 577.245 289.821 577.245C289.42 577.245 289.137 577.318 288.971 577.465C288.805 577.611 288.722 577.856 288.722 578.197V582.592H285.748C285.416 582.592 285.177 582.67 285.031 582.826C284.894 582.973 284.826 583.227 284.826 583.588C284.826 583.949 284.894 584.208 285.031 584.364C285.177 584.511 285.416 584.584 285.748 584.584H288.722V590.107C288.722 591.825 289.103 593.119 289.865 593.988C290.636 594.848 291.852 595.277 293.512 595.277C294.323 595.277 295.197 595.126 296.134 594.823C297.072 594.511 297.921 594.115 298.683 593.637C299.005 593.442 299.166 593.188 299.166 592.875C299.166 592.69 299.103 592.47 298.976 592.216C298.742 591.767 298.458 591.542 298.126 591.542C297.96 591.542 297.809 591.591 297.672 591.689C296.998 592.128 296.3 592.48 295.578 592.743C294.855 593.007 294.166 593.139 293.512 593.139C292.555 593.139 291.881 592.88 291.491 592.362C291.11 591.845 290.919 591.029 290.919 589.916V584.584H296.94C297.272 584.584 297.506 584.511 297.643 584.364C297.789 584.208 297.863 583.949 297.863 583.588C297.863 583.227 297.789 582.973 297.643 582.826C297.506 582.67 297.272 582.592 296.94 582.592H290.919V578.197C290.919 577.856 290.836 577.611 290.67 577.465ZM320.815 581.654C320.678 581.498 320.444 581.42 320.112 581.42H316.098C315.766 581.42 315.527 581.498 315.38 581.654C315.244 581.801 315.175 582.055 315.175 582.416C315.175 582.777 315.244 583.036 315.38 583.193C315.527 583.339 315.766 583.412 316.098 583.412H317.578L315.41 591.938L312.978 585.038C312.841 584.648 312.465 584.452 311.85 584.452C311.547 584.452 311.303 584.516 311.118 584.643C310.932 584.77 310.805 584.936 310.737 585.141L308.291 591.938L306.181 583.412H307.983C308.315 583.412 308.549 583.339 308.686 583.193C308.833 583.036 308.906 582.777 308.906 582.416C308.906 582.055 308.833 581.801 308.686 581.654C308.549 581.498 308.315 581.42 307.983 581.42H303.676C303.344 581.42 303.105 581.498 302.959 581.654C302.822 581.801 302.754 582.055 302.754 582.416C302.754 582.777 302.822 583.036 302.959 583.193C303.105 583.339 303.344 583.412 303.676 583.412H303.94L306.767 594.325C306.855 594.677 306.992 594.921 307.177 595.058C307.363 595.204 307.641 595.277 308.012 595.277C308.432 595.277 308.764 595.199 309.008 595.043C309.262 594.897 309.448 594.657 309.565 594.325L311.836 587.968L314.077 594.325C314.194 594.657 314.37 594.897 314.604 595.043C314.848 595.199 315.18 595.277 315.6 595.277C315.971 595.277 316.25 595.204 316.435 595.058C316.63 594.921 316.777 594.677 316.875 594.325L319.76 583.412H320.112C320.444 583.412 320.678 583.339 320.815 583.193C320.962 583.036 321.035 582.777 321.035 582.416C321.035 582.055 320.962 581.801 320.815 581.654ZM335.872 582.328C334.954 581.508 333.577 581.098 331.741 581.098C330.794 581.098 329.846 581.215 328.899 581.449C327.962 581.674 327.083 582.001 326.263 582.431C325.901 582.616 325.721 582.88 325.721 583.222C325.721 583.378 325.774 583.573 325.882 583.808C326.096 584.276 326.365 584.511 326.687 584.511C326.824 584.511 326.975 584.467 327.141 584.379C327.854 584.018 328.606 583.734 329.397 583.529C330.188 583.324 330.95 583.222 331.682 583.222C332.864 583.222 333.719 583.446 334.246 583.896C334.783 584.335 335.052 585.028 335.052 585.976V587.221C333.636 586.723 332.151 586.474 330.598 586.474C328.85 586.474 327.425 586.845 326.321 587.587C325.218 588.319 324.666 589.457 324.666 591C324.666 591.889 324.881 592.655 325.31 593.3C325.74 593.944 326.331 594.438 327.083 594.779C327.845 595.111 328.719 595.277 329.705 595.277C330.75 595.277 331.736 595.087 332.664 594.706C333.601 594.325 334.471 593.783 335.271 593.08C335.408 593.695 335.701 594.164 336.15 594.486C336.609 594.799 337.156 594.955 337.791 594.955H338.728C339.06 594.955 339.295 594.882 339.431 594.735C339.578 594.579 339.651 594.32 339.651 593.959C339.651 593.598 339.578 593.344 339.431 593.197C339.295 593.041 339.06 592.963 338.728 592.963H338.216C337.571 592.963 337.249 592.577 337.249 591.806V585.976C337.249 584.364 336.79 583.149 335.872 582.328ZM327.947 589.125C328.601 588.734 329.49 588.539 330.613 588.539C331.385 588.539 332.151 588.598 332.913 588.715C333.675 588.822 334.388 588.984 335.052 589.198V590.795C333.489 592.406 331.736 593.212 329.793 593.212C328.904 593.212 328.211 593.017 327.713 592.626C327.224 592.226 326.98 591.669 326.98 590.956C326.98 590.116 327.303 589.506 327.947 589.125ZM358.092 581.684C357.428 581.293 356.715 581.098 355.953 581.098C355.221 581.098 354.479 581.274 353.727 581.625C352.975 581.977 352.267 582.475 351.603 583.119C350.938 583.764 350.372 584.516 349.903 585.375V582.416C349.903 582.055 349.83 581.801 349.684 581.654C349.547 581.498 349.312 581.42 348.98 581.42H345.992C345.66 581.42 345.421 581.498 345.274 581.654C345.138 581.801 345.069 582.055 345.069 582.416C345.069 582.777 345.138 583.036 345.274 583.193C345.421 583.339 345.66 583.412 345.992 583.412H347.853V592.963H345.553C345.221 592.963 344.981 593.041 344.835 593.197C344.698 593.344 344.63 593.598 344.63 593.959C344.63 594.32 344.698 594.579 344.835 594.735C344.981 594.882 345.221 594.955 345.553 594.955H354.986C355.318 594.955 355.553 594.882 355.689 594.735C355.836 594.579 355.909 594.32 355.909 593.959C355.909 593.598 355.836 593.344 355.689 593.197C355.553 593.041 355.318 592.963 354.986 592.963H350.05V590.121C350.05 588.979 350.333 587.9 350.899 586.884C351.476 585.868 352.208 585.058 353.097 584.452C353.985 583.837 354.869 583.529 355.748 583.529C356.295 583.529 356.808 583.661 357.286 583.925C357.413 584.003 357.55 584.042 357.696 584.042C358.058 584.042 358.341 583.764 358.546 583.207C358.634 582.973 358.678 582.768 358.678 582.592C358.678 582.221 358.482 581.918 358.092 581.684ZM375.009 581.962C374.013 581.386 372.807 581.098 371.391 581.098C370.033 581.098 368.827 581.396 367.773 581.991C366.718 582.577 365.893 583.407 365.297 584.482C364.701 585.556 364.404 586.791 364.404 588.188C364.404 589.652 364.677 590.917 365.224 591.982C365.771 593.046 366.567 593.861 367.612 594.428C368.656 594.994 369.916 595.277 371.391 595.277C372.426 595.277 373.456 595.16 374.482 594.926C375.507 594.692 376.396 594.384 377.148 594.003C377.577 593.788 377.792 593.485 377.792 593.095C377.792 592.929 377.748 592.743 377.66 592.538C377.445 592.021 377.167 591.762 376.825 591.762C376.689 591.762 376.537 591.806 376.371 591.894C375.707 592.275 374.936 592.582 374.057 592.817C373.178 593.041 372.289 593.153 371.391 593.153C369.936 593.153 368.808 592.782 368.007 592.04C367.216 591.288 366.786 590.185 366.718 588.73H377.323C377.655 588.73 377.89 588.661 378.027 588.525C378.173 588.388 378.246 588.153 378.246 587.821C378.168 586.503 377.861 585.341 377.323 584.335C376.786 583.319 376.015 582.528 375.009 581.962ZM368.403 584.145C369.194 583.529 370.19 583.222 371.391 583.222C372.66 583.222 373.661 583.52 374.394 584.115C375.136 584.701 375.61 585.556 375.815 586.679H366.864C367.109 585.595 367.621 584.75 368.403 584.145ZM170.318 504.384C173.896 504.384 177.04 505.204 179.752 506.845C182.464 508.463 184.56 510.81 186.041 513.886C187.545 516.939 188.297 520.539 188.297 524.687C188.297 528.834 187.545 532.434 186.041 535.487C184.56 538.541 182.464 540.888 179.752 542.528C177.04 544.146 173.896 544.955 170.318 544.955H154.22C153.445 544.955 152.887 544.784 152.545 544.443C152.226 544.078 152.066 543.474 152.066 542.631C152.066 541.788 152.226 541.195 152.545 540.854C152.887 540.489 153.445 540.307 154.22 540.307H158.048V509.032H154.22C153.445 509.032 152.887 508.861 152.545 508.52C152.226 508.155 152.066 507.551 152.066 506.708C152.066 505.865 152.226 505.273 152.545 504.931C152.887 504.566 153.445 504.384 154.22 504.384H170.318ZM163.175 540.307H169.532C172.244 540.307 174.602 539.714 176.607 538.529C178.613 537.322 180.162 535.556 181.256 533.232C182.35 530.885 182.896 528.036 182.896 524.687C182.896 521.337 182.35 518.5 181.256 516.176C180.162 513.829 178.613 512.052 176.607 510.844C174.602 509.636 172.244 509.032 169.532 509.032H163.175V540.307ZM223.099 512.621C226.403 512.621 229.217 513.293 231.541 514.638C233.888 515.959 235.688 517.805 236.941 520.175C238.195 522.522 238.912 525.234 239.095 528.31C239.095 529.084 238.924 529.631 238.582 529.95C238.263 530.269 237.716 530.429 236.941 530.429H212.195C212.355 533.824 213.357 536.399 215.203 538.153C217.072 539.885 219.703 540.751 223.099 540.751C225.195 540.751 227.269 540.489 229.319 539.965C231.37 539.418 233.17 538.7 234.72 537.812C235.107 537.607 235.46 537.504 235.779 537.504C236.577 537.504 237.226 538.108 237.728 539.316C237.933 539.794 238.035 540.227 238.035 540.614C238.035 541.526 237.534 542.232 236.531 542.734C234.777 543.622 232.703 544.34 230.311 544.887C227.918 545.434 225.514 545.707 223.099 545.707C219.658 545.707 216.718 545.046 214.28 543.725C211.842 542.403 209.985 540.5 208.709 538.017C207.433 535.533 206.795 532.582 206.795 529.164C206.795 525.906 207.49 523.023 208.88 520.517C210.27 518.01 212.195 516.073 214.656 514.706C217.117 513.316 219.931 512.621 223.099 512.621ZM223.099 517.577C220.296 517.577 217.972 518.295 216.126 519.731C214.303 521.143 213.107 523.114 212.537 525.644H233.421C232.942 523.023 231.837 521.029 230.105 519.662C228.396 518.272 226.061 517.577 223.099 517.577ZM292.388 513.373C293.162 513.373 293.709 513.555 294.028 513.92C294.37 514.262 294.541 514.854 294.541 515.697C294.541 516.54 294.37 517.144 294.028 517.509C293.709 517.851 293.162 518.022 292.388 518.022H290.234L279.194 543.485C278.875 544.26 278.397 544.818 277.759 545.16C277.144 545.525 276.278 545.707 275.161 545.707C274.067 545.707 273.213 545.525 272.598 545.16C272.005 544.818 271.538 544.26 271.196 543.485L260.259 518.022H258.14C257.365 518.022 256.807 517.851 256.465 517.509C256.146 517.144 255.986 516.54 255.986 515.697C255.986 514.854 256.146 514.262 256.465 513.92C256.807 513.555 257.365 513.373 258.14 513.373H270.239C271.014 513.373 271.561 513.555 271.88 513.92C272.222 514.262 272.393 514.854 272.393 515.697C272.393 516.54 272.222 517.144 271.88 517.509C271.561 517.851 271.014 518.022 270.239 518.022H265.864L275.195 540.307L284.629 518.022H281.655C280.881 518.022 280.322 517.851 279.98 517.509C279.661 517.144 279.502 516.54 279.502 515.697C279.502 514.854 279.661 514.262 279.98 513.92C280.322 513.555 280.881 513.373 281.655 513.373H292.388ZM344.86 513.373C345.635 513.373 346.182 513.555 346.501 513.92C346.843 514.262 347.014 514.854 347.014 515.697C347.014 516.54 346.843 517.144 346.501 517.509C346.182 517.851 345.635 518.022 344.86 518.022H342.741L328.762 546.664C327.281 549.695 325.834 552.076 324.421 553.808C323.008 555.539 321.413 556.804 319.636 557.602C317.881 558.422 315.739 558.878 313.21 558.969C312.412 558.992 311.797 558.787 311.364 558.354C310.931 557.943 310.715 557.203 310.715 556.132C310.715 554.651 311.319 553.876 312.526 553.808C314.714 553.694 316.446 553.329 317.722 552.714C319.021 552.099 320.205 551.039 321.276 549.535C322.37 548.054 323.703 545.73 325.275 542.563L312.766 518.022H310.612C309.838 518.022 309.279 517.851 308.938 517.509C308.618 517.144 308.459 516.54 308.459 515.697C308.459 514.854 308.618 514.262 308.938 513.92C309.279 513.555 309.838 513.373 310.612 513.373H322.712C323.487 513.373 324.034 513.555 324.353 513.92C324.694 514.262 324.865 514.854 324.865 515.697C324.865 516.54 324.694 517.144 324.353 517.509C324.034 517.851 323.487 518.022 322.712 518.022H318.337L327.976 537.231L337.17 518.022H334.128C333.353 518.022 332.795 517.851 332.453 517.509C332.134 517.144 331.975 516.54 331.975 515.697C331.975 514.854 332.134 514.262 332.453 513.92C332.795 513.555 333.353 513.373 334.128 513.373H344.86ZM384.071 512.621C386.145 512.621 387.945 513.077 389.472 513.988C390.998 514.877 392.172 516.164 392.992 517.851C393.812 519.537 394.223 521.508 394.223 523.764V540.307H397.025C397.8 540.307 398.347 540.489 398.666 540.854C399.008 541.195 399.179 541.788 399.179 542.631C399.179 543.474 399.008 544.078 398.666 544.443C398.347 544.784 397.8 544.955 397.025 544.955H385.951C385.176 544.955 384.618 544.784 384.276 544.443C383.957 544.078 383.798 543.474 383.798 542.631C383.798 541.788 383.957 541.195 384.276 540.854C384.618 540.489 385.176 540.307 385.951 540.307H389.096V524.276C389.096 522.248 388.629 520.642 387.694 519.457C386.76 518.272 385.382 517.68 383.559 517.68C381.622 517.68 379.81 518.238 378.124 519.355C376.461 520.471 375.128 522.009 374.125 523.969C373.122 525.929 372.621 528.116 372.621 530.531V540.307H375.766C376.54 540.307 377.087 540.489 377.406 540.854C377.748 541.195 377.919 541.788 377.919 542.631C377.919 543.474 377.748 544.078 377.406 544.443C377.087 544.784 376.54 544.955 375.766 544.955H364.691C363.917 544.955 363.358 544.784 363.017 544.443C362.698 544.078 362.538 543.474 362.538 542.631C362.538 541.788 362.698 541.195 363.017 540.854C363.358 540.489 363.917 540.307 364.691 540.307H367.494V518.022H364.008C363.233 518.022 362.675 517.851 362.333 517.509C362.014 517.144 361.854 516.54 361.854 515.697C361.854 514.854 362.014 514.262 362.333 513.92C362.675 513.555 363.233 513.373 364.008 513.373H370.126C370.901 513.373 371.448 513.555 371.767 513.92C372.108 514.262 372.279 514.854 372.279 515.697V519.799C373.783 517.475 375.538 515.697 377.543 514.467C379.571 513.236 381.747 512.621 384.071 512.621ZM432.989 512.621C436.293 512.621 439.107 513.293 441.432 514.638C443.779 515.959 445.579 517.805 446.832 520.175C448.085 522.522 448.803 525.234 448.985 528.31C448.985 529.084 448.814 529.631 448.473 529.95C448.154 530.269 447.607 530.429 446.832 530.429H422.086C422.245 533.824 423.248 536.399 425.094 538.153C426.962 539.885 429.594 540.751 432.989 540.751C435.086 540.751 437.159 540.489 439.21 539.965C441.261 539.418 443.061 538.7 444.61 537.812C444.998 537.607 445.351 537.504 445.67 537.504C446.467 537.504 447.117 538.108 447.618 539.316C447.823 539.794 447.926 540.227 447.926 540.614C447.926 541.526 447.424 542.232 446.422 542.734C444.667 543.622 442.594 544.34 440.201 544.887C437.809 545.434 435.405 545.707 432.989 545.707C429.548 545.707 426.609 545.046 424.171 543.725C421.733 542.403 419.876 540.5 418.6 538.017C417.324 535.533 416.686 532.582 416.686 529.164C416.686 525.906 417.381 523.023 418.771 520.517C420.16 518.01 422.086 516.073 424.547 514.706C427.008 513.316 429.822 512.621 432.989 512.621ZM432.989 517.577C430.187 517.577 427.862 518.295 426.017 519.731C424.194 521.143 422.997 523.114 422.428 525.644H443.312C442.833 523.023 441.728 521.029 439.996 519.662C438.287 518.272 435.952 517.577 432.989 517.577ZM394.972 336.376C402.025 359.735 384.908 384.612 360.509 384.612C336.111 384.612 318.994 359.735 326.047 336.376C339.41 292.118 354.449 226.22 344.461 177.419C341.677 163.814 336.228 148.026 330.443 133.485C321.821 111.814 337.189 86.9552 360.509 86.9552C383.83 86.9552 399.197 111.814 390.576 133.485C384.791 148.026 379.342 163.814 376.558 177.419C366.57 226.22 381.609 292.118 394.972 336.376ZM267.928 246.479C259.99 223.581 276.461 197.847 300.693 197.847C324.926 197.847 341.397 223.581 333.458 246.479C320.645 283.437 307.923 334.268 317.2 372.539C319.493 381.999 323.577 392.53 328.191 402.671C337.607 423.362 323.423 448.812 300.693 448.812C277.963 448.812 263.78 423.362 273.195 402.671C277.81 392.53 281.893 381.999 284.187 372.539C293.464 334.268 280.741 283.437 267.928 246.479ZM346.505 420.654C339.496 445.397 364.967 463.597 383.594 445.869C411.975 418.857 439.234 382.366 433.456 345.216C428.589 313.925 432.999 284.292 438.95 261.843C444.004 242.776 430.216 221.192 410.493 221.192C394.771 221.192 382.676 234.902 385.266 250.411C389.205 274.004 395.916 308.278 405.736 339.379C417.237 375.803 390.331 391.448 370.517 397.895C359.46 401.493 349.675 409.466 346.505 420.654ZM225.644 449.157C241.439 459.18 259.764 446.236 258.431 427.575C257.558 415.354 248.051 405.535 236.302 402.066C213.763 395.411 182.332 379.723 194.192 345.216C216.357 280.729 214.866 228.767 211.822 202.784C210.564 192.051 201.242 184.715 190.436 184.715C172.081 184.715 159.08 205.549 164.077 223.212C172.424 252.713 179.066 297.625 167.931 352.511C158.904 397.009 195.624 430.106 225.644 449.157ZM240.877 384.612C264.858 384.612 281.42 359.653 274.009 336.843C261.075 297.034 247.427 240.182 256.926 197.732C259.428 186.55 264.1 173.847 269.235 161.85C278.176 140.96 263.598 116.137 240.877 116.137C218.157 116.137 203.578 140.96 212.519 161.85C217.654 173.847 222.327 186.55 224.829 197.732C234.328 240.182 220.68 297.034 207.745 336.843C200.334 359.653 216.897 384.612 240.877 384.612Z" fill="url(#paint1_linear)"/>
<defs>
<linearGradient id="paint1_linear" x1="0" y1="0" x2="0" y2="690" gradientUnits="userSpaceOnUse">
<stop stop-color="#E8D98C"/>
<stop offset="1" stop-color="#CA7D5C"/>
</linearGradient>
</defs>
</svg>
