<svg width="512" height="512" viewBox="0 0 512 512" fill="none" xmlns="http://www.w3.org/2000/svg">
<path d="M213.8 148.683C197.877 148.894 184.166 152.014 170.697 158.726C136.299 175.86 116.436 211.943 116.436 257.407C116.436 302.976 135.976 337.989 170.493 354.367C179.817 358.792 189.164 361.2 203.354 362.887C210.535 363.175 217.252 363.686 224.246 362.887C238.436 361.2 247.783 358.792 257.107 354.367C291.627 337.989 311.167 302.979 311.167 257.407C311.167 211.943 291.301 175.86 256.905 158.726C243.434 152.014 229.726 148.894 213.8 148.683V148.683ZM227.494 180.734C248.146 186.237 263.132 204.871 268.871 232.053C272.909 251.143 271.807 273.201 266.034 290.574C257.041 317.63 237.521 332.91 213.8 332.665C190.078 332.91 170.559 317.63 161.569 290.574C155.801 273.201 154.696 251.143 158.728 232.053C164.471 204.871 179.456 186.237 200.109 180.734C209.474 178.75 218.804 179.107 227.494 180.734V180.734ZM76.656 148.683C72.5723 148.683 68.5804 149.894 65.185 152.163C61.7896 154.432 59.1432 157.656 57.5805 161.429C56.0177 165.202 55.6089 169.353 56.4055 173.358C57.2022 177.364 59.1687 181.043 62.0562 183.93C64.9438 186.818 68.6227 188.784 72.6279 189.581C76.6331 190.377 80.7845 189.969 84.5573 188.406C88.3301 186.843 91.5547 184.197 93.8234 180.801C96.0922 177.406 97.3031 173.414 97.3031 169.33C97.3031 163.854 95.1278 158.603 91.2557 154.731C87.3836 150.858 82.1319 148.683 76.656 148.683ZM57.3643 211.68V363.317H95.9476V211.68H57.3643ZM367.268 362.999C350.736 360.167 334.836 357.975 321.339 350.309C321.16 350.151 329.307 319.706 329.674 319.161C351.368 326.527 381.904 336.858 402.494 327.393C413.719 321.777 419.248 311.397 417.39 299.417C415.299 285.951 405.975 278.19 380.379 268.621C351.826 257.95 335.099 244.83 328.249 227.773C324.883 219.384 323.77 208.707 325.281 199.38C329.492 173.437 349.701 155.392 380.716 149.874C389.7 148.276 408.917 148.262 418.371 149.843C431.995 152.121 447.621 157.275 447.621 159.49C447.621 160.306 439.638 188.455 439.229 189.078C425.757 183.742 410.647 179.929 397.862 179.849C379.773 179.621 360.161 190.358 363.622 209.327C366.071 221.212 373.656 227.015 401.574 238.358C422.137 246.722 432.004 252.49 440.46 261.073C452.213 272.808 455.927 286.577 456.014 300.224C456.046 311.591 454.984 316.894 450.929 325.671C441.077 346.986 421.04 359.343 390.816 362.743C385.163 363.374 371.845 363.519 367.282 362.999H367.268Z" fill="black" fill-opacity="0.3"/>
</svg>
