<svg width="107" height="207" viewBox="0 0 107 207" fill="none" xmlns="http://www.w3.org/2000/svg">
<path d="M18.0546 30.7708C14.5605 24.1266 19.8025 11.7504 27.3688 11.7504C34.9351 11.7504 40.177 24.1265 36.683 30.7707C32.2799 39.1438 28.6714 50.4509 28.6714 65.0224C28.6714 87.2167 37.0429 116.545 43.843 136.708C47.6292 147.934 39.3235 159.998 27.3688 159.998C15.4141 159.998 7.10848 147.934 10.8947 136.708C17.6947 116.545 26.0662 87.2168 26.0662 65.0224C26.0662 50.4509 22.4577 39.1439 18.0546 30.7708Z" fill="url(#paint0_linear)"/>
<path d="M63.0262 187.98C66.5202 194.624 61.2783 207 53.7119 207C46.1456 207 40.9037 194.624 44.3977 187.98C48.8009 179.607 52.4093 168.3 52.4093 153.728C52.4093 131.534 44.0378 102.205 37.2377 82.0428C33.4515 70.8167 41.7572 58.752 53.7119 58.752C65.6666 58.752 73.9722 70.8167 70.1861 82.0428C63.386 102.205 55.0145 131.534 55.0145 153.728C55.0145 168.299 58.623 179.606 63.0262 187.98Z" fill="url(#paint1_linear)"/>
<path d="M68.1478 21.0381C63.8931 12.2202 70.1843 0 80.0551 0C89.9259 0 96.217 12.2202 91.9624 21.038C86.478 32.4048 81.3577 47.6649 81.3577 65.0224C81.3577 87.2167 89.7293 116.545 96.5293 136.708C100.316 147.934 92.0099 159.998 80.0552 159.998C68.1005 159.998 59.7948 147.934 63.581 136.708C70.3811 116.545 78.7526 87.2168 78.7526 65.0224C78.7526 47.6649 73.6323 32.4049 68.1478 21.0381Z" fill="url(#paint2_linear)"/>
<path d="M68.4101 179.156C68.4101 172.599 75.9095 167.996 82.5091 167.447C86.4931 167.116 90.8016 165.719 94.6913 162.235C105.919 152.178 102.084 133.036 97.0276 116.923C93.3725 105.276 90.2451 92.6437 88.3936 84.7134C87.4349 80.6072 89.5058 76.9889 94.8565 76.7396C100 76.5 101.532 80.136 101.252 83.8353C100.769 90.2105 100.524 100.724 102.084 114.733C104.789 139.03 113.969 153.898 97.0276 173.522C95.0222 175.845 88.6831 181.053 82.4793 185.958C76.7619 190.478 68.4101 186.4 68.4101 179.156Z" fill="url(#paint3_linear)"/>
<path d="M39.0188 179.157C39.0188 172.6 31.5198 167.996 24.9199 167.448C20.9349 167.117 16.6251 165.72 12.7343 162.236C1.50501 152.179 5.50505 133.269 10.3977 116.926C21.3223 80.4336 22.0556 63.6402 21.1475 55.7139C20.7221 52 19.5 49 15.1117 48.5421C10.7234 48.0841 6.4625 53 7.60204 58.9069C9.41388 68.2989 10.282 85.3144 5.34082 114.736C1.39627 138.223 -6.54576 153.899 10.3977 173.522C12.4035 175.846 18.7442 181.055 24.9493 185.959C30.6672 190.479 39.0188 186.4 39.0188 179.157Z" fill="url(#paint4_linear)"/>
<defs>
<linearGradient id="paint0_linear" x1="19.5094" y1="48.5421" x2="19.5094" y2="196.82" gradientUnits="userSpaceOnUse">
<stop stop-color="#E8D98C"/>
<stop offset="1" stop-color="#E29C7D"/>
</linearGradient>
<linearGradient id="paint1_linear" x1="19.5094" y1="48.5421" x2="19.5094" y2="196.82" gradientUnits="userSpaceOnUse">
<stop stop-color="#E8D98C"/>
<stop offset="1" stop-color="#E29C7D"/>
</linearGradient>
<linearGradient id="paint2_linear" x1="19.5094" y1="48.5421" x2="19.5094" y2="196.82" gradientUnits="userSpaceOnUse">
<stop stop-color="#E8D98C"/>
<stop offset="1" stop-color="#E29C7D"/>
</linearGradient>
<linearGradient id="paint3_linear" x1="19.5094" y1="48.5421" x2="19.5094" y2="196.82" gradientUnits="userSpaceOnUse">
<stop stop-color="#E8D98C"/>
<stop offset="1" stop-color="#E29C7D"/>
</linearGradient>
<linearGradient id="paint4_linear" x1="19.5094" y1="48.5421" x2="19.5094" y2="196.82" gradientUnits="userSpaceOnUse">
<stop stop-color="#E8D98C"/>
<stop offset="1" stop-color="#E29C7D"/>
</linearGradient>
</defs>
</svg>
