<svg width="135" height="135" viewBox="0 0 135 135" fill="none" xmlns="http://www.w3.org/2000/svg">
<path d="M55.9608 59.6649C53.2401 51.8184 58.8851 43.0001 67.1899 43.0001C75.4948 43.0001 81.1397 51.8184 78.4191 59.665C74.0279 72.3298 69.6676 89.7484 72.8471 102.863C73.6331 106.105 75.0324 109.713 76.614 113.189C79.8408 120.279 74.9798 129 67.1899 129C59.4 129 54.539 120.279 57.7658 113.189C59.3474 109.713 60.7468 106.105 61.5328 102.863C64.7122 89.7484 60.352 72.3298 55.9608 59.6649Z" fill="url(#paint6_linear)"/>
<path d="M99.5008 90.4706C101.918 98.4753 96.0516 107 87.6899 107C79.3282 107 73.4619 98.4753 75.8791 90.4706C80.4588 75.3044 85.6129 52.7227 82.1899 36C81.2356 31.3377 79.3683 25.9277 77.3856 20.9447C74.4309 13.5184 79.6975 5 87.6899 5C95.6824 5 100.949 13.5184 97.9942 20.9447C96.0116 25.9277 94.1442 31.3377 93.1899 36C89.7669 52.7227 94.9211 75.3045 99.5008 90.4706Z" fill="url(#paint6_linear)"/>
<path d="M95.6014 127.991C89.2176 134.066 80.4882 127.83 82.8904 119.351C83.9767 115.517 87.3304 112.785 91.1197 111.552C97.9105 109.343 107.132 103.982 103.19 91.4998C99.8244 80.8423 97.5246 69.0974 96.1744 61.0125C95.2868 55.6979 99.4321 50.9998 104.82 50.9998C111.58 50.9998 116.305 58.3963 114.573 64.9298C112.533 72.6228 111.022 82.7774 112.69 93.4998C114.67 106.23 105.328 118.735 95.6014 127.991Z" fill="url(#paint6_linear)"/>
<path d="M41.4691 129.118C46.8823 132.553 53.1627 128.117 52.7059 121.722C52.4068 117.535 49.1485 114.17 45.1219 112.981C37.3974 110.7 26.6253 105.325 30.6901 93.4999C38.2863 71.4018 37.7756 53.5957 36.7321 44.6919C36.3011 41.0138 33.106 38.5 29.4027 38.5C23.1122 38.5 18.6565 45.6392 20.3692 51.6921C23.2296 61.8013 25.5063 77.1917 21.6901 95.9999C18.5963 111.248 31.1807 122.59 41.4691 129.118Z" fill="url(#paint6_linear)"/>
<path d="M58.0448 90.6308C60.5847 98.4471 54.9085 107 46.6899 107C38.4713 107 32.7952 98.4471 35.335 90.6307C39.7678 76.989 44.4453 57.5073 41.1899 42.9608C40.3323 39.1287 38.731 34.7758 36.9712 30.6647C33.9069 23.5063 38.9032 15 46.6899 15C54.4766 15 59.473 23.5063 56.4086 30.6647C54.6488 34.7758 53.0475 39.1287 52.1899 42.9608C48.9346 57.5073 53.612 76.989 58.0448 90.6308Z" fill="url(#paint6_linear)"/>
<defs>
<linearGradient id="paint6_linear" x1="0" y1="0" x2="0" y2="135" gradientUnits="userSpaceOnUse">
<stop stop-color="#E8D98C"/>
<stop offset="100%" stop-color="#C76A42"/>
</linearGradient>
</defs>
</svg>
